<?xml version="1.0" standalone="no"?><!DOCTYPE svg PUBLIC "-//W3C//DTD SVG 1.1//EN" "http://www.w3.org/Graphics/SVG/1.1/DTD/svg11.dtd"><svg t="1682411693170" class="icon" viewBox="0 0 1024 1024" version="1.1" xmlns="http://www.w3.org/2000/svg" p-id="6574" xmlns:xlink="http://www.w3.org/1999/xlink" width="200" height="200"><path d="M512 512m-512 0a512 512 0 1 0 1024 0 512 512 0 1 0-1024 0Z" fill="#EABC4E" p-id="6575"></path><path d="M363.428571 569.124571L512 717.714286l148.571429-148.571429L740.571429 649.142857 512 877.714286 283.428571 649.142857l80-80.018286zM512 420.571429l91.428571 91.428571-91.428571 91.428571-91.428571-91.428571 91.428571-91.428571z m-285.714286 11.410285l80 80-80 80.018286L146.285714 512l80-80.018286z m571.428572 0.036572L877.714286 512l-80 80L717.714286 512l80-79.981714zM512 146.285714l228.553143 228.571429-79.981714 79.981714L512 306.285714l-148.571429 148.553143L283.428571 374.857143 512 146.285714z" fill="#FFFFFF" p-id="6576"></path></svg>