<?xml version="1.0" standalone="no"?><!DOCTYPE svg PUBLIC "-//W3C//DTD SVG 1.1//EN" "http://www.w3.org/Graphics/SVG/1.1/DTD/svg11.dtd"><svg t="1682411562451" class="icon" viewBox="0 0 1024 1024" version="1.1" xmlns="http://www.w3.org/2000/svg" p-id="6026" xmlns:xlink="http://www.w3.org/1999/xlink" width="200" height="200"><path d="M1008.67405 635.86657c-68.3884 274.285029-346.239134 441.196611-620.57902 372.808211C113.846573 940.286381-53.083296 662.472218 15.341676 388.205475 83.693505 113.86559 361.507668-53.064279 635.792696 15.324122c274.339886 68.3884 441.269754 346.220849 372.881354 620.542448" fill="#F7931A" p-id="6027"></path><path d="M626.777862 438.052208c-15.835389 63.45127-113.627145 31.213636-145.334494 23.314227l27.977073-112.164291c31.707349 7.917694 133.851094 22.674229 117.357421 88.868349m-17.371386 180.973262c-17.371385 69.759826-134.83852 32.036491-172.927567 22.582801l30.866208-123.647691c38.089048 9.508548 160.219028 28.306215 142.043074 101.06489m128.383679-179.985836c10.185117-68.114115-41.691324-104.74031-112.639719-129.169962l23.039943-92.28777-56.210145-14.006822-22.381659 89.855776a2324.108475 2324.108475 0 0 0-45.019316-10.605688l22.54623-90.440917-56.137003-13.988536-23.039942 92.251198c-12.196541-2.779422-24.210225-5.540558-35.839911-8.429694l0.036572-0.29257-77.458092-19.346238-14.957677 59.995279s41.691324 9.563405 40.777041 10.148546c22.765657 5.668557 26.898218 20.735948 26.203363 32.67649l-26.221649 105.142594c1.590853 0.383999 3.602277 0.96914 5.851414 1.865138-1.883424-0.475427-3.876562-0.987426-5.924557-1.462853l-36.754194 147.272774c-2.797707 6.911983-9.83769 17.279957-25.746221 13.348538 0.54857 0.804569-40.831898-10.203403-40.831898-10.203403l-27.90393 64.310697 73.142674 18.212526c13.567966 3.41942 26.898218 6.985125 40.045614 10.331402l-23.277656 93.348338 56.137003 14.006823 23.021657-92.342627c15.32339 4.150847 30.207924 7.990837 44.781602 11.6114l-22.948514 91.90377 56.173574 14.006822 23.241084-93.165481c95.816903 18.102812 167.844152 10.788544 198.180076-75.830668 24.429653-69.759826-1.206854-109.988296-51.638728-136.228231 36.717622-8.466265 64.365553-32.603347 71.752964-82.468365" fill="#FFFFFF" p-id="6028"></path></svg>