<?xml version="1.0" standalone="no"?><!DOCTYPE svg PUBLIC "-//W3C//DTD SVG 1.1//EN" "http://www.w3.org/Graphics/SVG/1.1/DTD/svg11.dtd"><svg t="1682411772772" class="icon" viewBox="0 0 1024 1024" version="1.1" xmlns="http://www.w3.org/2000/svg" p-id="6985" xmlns:xlink="http://www.w3.org/1999/xlink" width="200" height="200"><path d="M512 512m-512 0a512 512 0 1 0 1024 0 512 512 0 1 0-1024 0Z" fill="#F8CB4F" p-id="6986"></path><path d="M786.176 420.352l85.193143 85.174857-374.985143 374.985143-85.174857-85.193143 374.966857-374.966857z m-138.422857-138.422857l85.174857 85.174857-374.966857 374.966857-85.174857-85.174857 374.966857-374.966857z m-427.702857 150.820571l85.211428 85.193143-85.723428 85.705143-85.193143-85.174857 85.723428-85.723429z m289.28-289.261714l85.174857 85.193143-235.702857 235.702857-85.174857-85.193143 235.702857-235.702857z" fill="#000000" p-id="6987"></path></svg>