<?xml version="1.0" standalone="no"?><!DOCTYPE svg PUBLIC "-//W3C//DTD SVG 1.1//EN" "http://www.w3.org/Graphics/SVG/1.1/DTD/svg11.dtd"><svg t="1682411785623" class="icon" viewBox="0 0 1024 1024" version="1.1" xmlns="http://www.w3.org/2000/svg" p-id="7122" xmlns:xlink="http://www.w3.org/1999/xlink" width="200" height="200"><path d="M512 512m-512 0a512 512 0 1 0 1024 0 512 512 0 1 0-1024 0Z" fill="#FFBA3B" p-id="7123"></path><path d="M529.152 237.714286c112.457143 0 209.133714 67.693714 251.446857 164.571428H877.714286v73.142857h-76.708572a276.809143 276.809143 0 0 1 0 73.142858H877.714286v73.142857h-97.115429c-42.331429 96.877714-138.971429 164.571429-251.465143 164.571428h-237.714285v-164.571428H219.428571v-73.142857h71.990858v-73.142858H219.428571v-73.142857h71.990858v-164.571428h237.714285z m168.594286 384H364.562286v91.428571h164.571428a200.96 200.96 0 0 0 168.612572-91.428571z m29.220571-146.285715H364.562286v73.142858h362.404571a202.294857 202.294857 0 0 0 0-73.142858z m-197.833143-164.571428h-164.571428v91.428571h333.202285a200.978286 200.978286 0 0 0-163.346285-91.355428L529.152 310.857143z" fill="#FFFFFF" p-id="7124"></path></svg>