<?xml version="1.0" standalone="no"?><!DOCTYPE svg PUBLIC "-//W3C//DTD SVG 1.1//EN" "http://www.w3.org/Graphics/SVG/1.1/DTD/svg11.dtd"><svg t="1682411611873" class="icon" viewBox="0 0 1024 1024" version="1.1" xmlns="http://www.w3.org/2000/svg" p-id="6163" xmlns:xlink="http://www.w3.org/1999/xlink" width="200" height="200"><path d="M512 512m-512 0a512 512 0 1 0 1024 0 512 512 0 1 0-1024 0Z" fill="#5BAA63" p-id="6164"></path><path d="M548.388571 347.684571c8.137143 0.219429 16.274286 0.731429 24.411429 0.987429 5.266286 0.182857 9.526857 1.609143 9.435429 7.936-0.384 26.203429 1.133714 52.626286-1.883429 78.537143-3.821714 32.731429-32.877714 55.277714-65.938286 56.173714-18.688 0.512-37.979429-0.182857-55.844571 4.352-45.622857 11.556571-77.293714 55.021714-77.366857 102.436572-0.109714 64.822857-0.182857 129.645714 0.146285 194.486857 0.036571 8.868571-2.048 12.123429-11.428571 11.977143-33.828571-0.548571-67.693714-0.182857-101.540571-0.237715-19.510857-0.018286-30.281143-10.788571-30.336-30.464-0.073143-31.945143-0.018286-63.872-0.018286-95.817143h-0.256c0-27.52-0.146286-55.04 0.036571-82.541714 0.731429-117.888 88.832-223.707429 203.776-244.992 35.474286-6.582857 71.168-3.766857 106.806857-2.834286zM765.001143 566.491429l1.828571 1.005714c0.146286 3.017143 0.457143 6.034286 0.457143 9.051428v215.369143c0 12.397714-0.036571 12.434286-12.617143 12.434286h-98.742857c-20.260571-0.036571-30.555429-10.404571-30.628571-30.884571-0.073143-24.667429 0.073143-49.334857-0.091429-74.002286-0.018286-5.193143 0.914286-8.795429 6.272-11.190857 56.740571-25.453714 100.882286-65.261714 132.553143-119.149715 0.457143-0.786286 0.658286-1.755429 0.969143-2.633142z m-21.046857-346.441143c10.697143-0.018286 21.632 10.386286 22.893714 21.485714 0.512 4.370286 0.438857 8.832 0.438857 13.257143 0.036571 49.645714-1.060571 99.328 0.457143 148.918857 0.969143 31.963429-0.402286 63.378286-10.477714 93.549714-34.230857 102.418286-104.374857 163.547429-210.779429 177.572572-37.174857 4.900571-75.574857 0.566857-113.408 0.365714-6.034286-0.018286-9.033143-3.108571-8.996571-9.508571 0.164571-24.356571-0.694857-48.731429 0.329143-73.051429 1.353143-32.384 34.377143-60.16 66.779428-59.355429 17.682286 0.420571 36.022857-0.091429 53.065143-4.315428 48.969143-12.16 80.310857-54.582857 80.877714-106.715429 0.365714-31.634286 0.073143-63.250286 0.091429-94.866285 0-32.256 0.164571-64.512-0.109714-96.768-0.073143-7.387429 2.468571-10.038857 9.801142-10.038858 36.333714 0 72.685714-0.438857 109.037715-0.530285zM249.892571 219.428571c33.828571 0.548571 67.657143 0.182857 101.504 0.219429 18.944 0.036571 29.714286 10.88 29.769143 29.933714 0.073143 24.978286 0.274286 49.956571-0.274285 74.916572-0.091429 3.693714-3.254857 9.216-6.436572 10.660571-54.674286 24.978286-97.901714 62.921143-129.426286 114.468572a174.464 174.464 0 0 1-4.077714 6.345142c-0.310857 0.475429-0.969143 0.731429-2.925714 2.121143v-11.812571c0-71.442286 0.182857-142.884571-0.182857-214.308572-0.036571-9.380571 2.304-12.690286 12.068571-12.544z" fill="#FFFFFF" p-id="6165"></path></svg>