<?xml version="1.0" standalone="no"?><!DOCTYPE svg PUBLIC "-//W3C//DTD SVG 1.1//EN" "http://www.w3.org/Graphics/SVG/1.1/DTD/svg11.dtd"><svg t="1682411628514" class="icon" viewBox="0 0 1024 1024" version="1.1" xmlns="http://www.w3.org/2000/svg" p-id="6300" xmlns:xlink="http://www.w3.org/1999/xlink" width="200" height="200"><path d="M512 512m-512 0a512 512 0 1 0 1024 0 512 512 0 1 0-1024 0Z" fill="#8247E5" p-id="6301"></path><path d="M688.914286 385.499429a44.470857 44.470857 0 0 0-43.574857 0l-99.986286 58.697142-67.821714 38.253715-100.150858 58.660571c-13.531429 7.68-30.025143 7.68-43.574857 0l-79.506285-45.842286a43.958857 43.958857 0 0 1-21.76-36.992v-90.605714a41.362286 41.362286 0 0 1 21.76-37.010286l78.244571-44.617142c13.531429-7.68 30.025143-7.68 43.574857 0l78.189714 44.617142a44.032 44.032 0 0 1 21.796572 37.010286v58.660572l67.931428-39.552v-58.459429a41.362286 41.362286 0 0 0-21.76-36.992l-144.896-84.425143a44.141714 44.141714 0 0 0-43.574857 0l-147.419428 84.224A41.325714 41.325714 0 0 0 164.571429 328.32v169.6a41.325714 41.325714 0 0 0 21.814857 36.992l147.419428 84.169143c13.531429 7.68 30.043429 7.68 43.574857 0l100.150858-57.563429 67.821714-39.68 99.986286-57.417143a44.470857 44.470857 0 0 1 43.574857 0l78.189714 44.653715a43.904 43.904 0 0 1 21.814857 36.955428v90.587429a41.289143 41.289143 0 0 1-21.814857 36.937143l-78.189714 45.915428c-13.531429 7.68-30.025143 7.68-43.574857 0l-78.226286-44.617143a43.958857 43.958857 0 0 1-21.76-36.992v-58.514285l-67.821714 39.552v58.514285c-0.182857 15.488 8.228571 29.787429 21.814857 36.973715l147.273143 84.425143c13.531429 7.68 30.043429 7.68 43.574857 0l147.419428-84.150858A43.995429 43.995429 0 0 0 859.428571 677.668571v-169.618285a41.398857 41.398857 0 0 0-21.814857-36.992l-148.699428-85.577143z" fill="#FFFFFF" p-id="6302"></path></svg>