<?xml version="1.0" standalone="no"?><!DOCTYPE svg PUBLIC "-//W3C//DTD SVG 1.1//EN" "http://www.w3.org/Graphics/SVG/1.1/DTD/svg11.dtd"><svg t="1682411644433" class="icon" viewBox="0 0 1024 1024" version="1.1" xmlns="http://www.w3.org/2000/svg" p-id="6437" xmlns:xlink="http://www.w3.org/1999/xlink" width="200" height="200"><path d="M512 512m-512 0a512 512 0 1 0 1024 0 512 512 0 1 0-1024 0Z" fill="#E93C3F" p-id="6438"></path><path d="M201.142857 201.142857l519.076572 93.805714L859.428571 425.746286 475.245714 896 201.142857 201.142857z m598.290286 247.296l-253.019429 34.395429-43.318857 328.374857 296.338286-362.770286z m-534.345143-172.672l207.012571 524.726857 42.861715-325.010285-249.874286-199.716572z m16.713143-27.611428l250.038857 199.826285 152.064-127.158857-402.102857-72.667428zM716.434286 335.36l-131.565715 110.006857 217.252572-29.531428-85.686857-80.475429z" fill="#FFFFFF" p-id="6439"></path></svg>