<?xml version="1.0" standalone="no"?><!DOCTYPE svg PUBLIC "-//W3C//DTD SVG 1.1//EN" "http://www.w3.org/Graphics/SVG/1.1/DTD/svg11.dtd"><svg t="1682411797906" class="icon" viewBox="0 0 1024 1024" version="1.1" xmlns="http://www.w3.org/2000/svg" p-id="7259" xmlns:xlink="http://www.w3.org/1999/xlink" width="200" height="200"><path d="M512 1024C230.4 1024 0 793.6 0 512S230.4 0 512 0s512 230.4 512 512-230.4 512-512 512" fill="#002868" p-id="7260"></path><path d="M770.048 819.2H253.952a49.298286 49.298286 0 0 1-49.152-49.152V253.952a49.298286 49.298286 0 0 1 49.152-49.152h516.096a49.298286 49.298286 0 0 1 49.152 49.152v516.096a49.298286 49.298286 0 0 1-49.152 49.152" fill="#FFFFFF" p-id="7261"></path><path d="M324.681143 757.357714c-1.609143 0-2.925714-1.481143-2.925714-3.108571v-82.541714c0-1.627429-1.298286-3.108571-2.925715-3.108572h-29.147428c-1.645714 0-3.090286-1.298286-3.090286-2.925714v-15.945143c0-1.609143 1.462857-3.108571 3.108571-3.108571h89.691429c1.609143 0 3.108571 1.462857 3.108571 3.108571v15.945143c0 1.627429-1.499429 2.925714-3.108571 2.925714h-28.982857c-1.609143 0-3.090286 1.462857-3.090286 3.108572v82.541714c0 1.627429-1.316571 3.108571-2.925714 3.108571h-19.712zM472.027429 649.728c0-1.609143 1.298286-3.108571 2.925714-3.108571h19.529143c1.627429 0 3.108571 1.462857 3.108571 3.108571v56.338286c0 33.389714-18.889143 52.754286-48.859428 52.754285-29.805714 0-48.512-19.382857-48.512-52.754285v-56.338286c0-1.609143 1.316571-3.108571 2.925714-3.108571h19.547428c1.609143 0 3.090286 1.462857 3.090286 3.108571v57.142857c0 16.457143 8.448 28.16 23.113143 28.16s23.131429-11.702857 23.131429-28.16v-57.142857zM587.300571 682.788571c-2.596571 0-3.419429-0.987429-4.388571-2.925714-3.437714-7.990857-10.916571-13.037714-22.308571-13.037714-10.258286 0-18.889143 3.584-18.889143 10.422857 0 7.497143 7.990857 10.605714 25.563428 12.708571 26.697143 3.090286 42.002286 11.245714 42.002286 32.384 0 23.771429-20.845714 36.315429-47.542857 36.315429-23.113143 0-42.971429-11.245714-46.08-34.834286-0.310857-2.267429 0.822857-3.090286 3.108571-3.090285h17.92c2.267429 0 3.584 0.987429 4.224 2.761142 2.450286 7.826286 10.752 13.842286 22.802286 13.842286 10.587429 0 19.858286-3.913143 19.858286-12.196571 0-9.929143-9.764571-11.702857-29.293715-14.171429-22.473143-2.925714-38.089143-9.453714-38.089142-30.134857 0-20.662857 17.737143-35.474286 45.586285-35.474286 25.051429 0 42.496 13.494857 46.08 33.700572 0.493714 2.267429-0.182857 3.748571-2.614857 3.748571h-17.92v-0.018286zM675.693714 735.36c17.755429 0 31.579429-14.006857 31.579429-33.389714s-13.842286-33.389714-31.744-33.389715h-18.395429c-1.609143 0-2.925714 1.462857-2.925714 3.108572v60.708571c0 1.627429 1.316571 2.925714 2.925714 2.925715h18.56v0.036571z m-44.269714 21.997714c-1.627429 0-2.925714-1.481143-2.925714-3.108571v-104.521143c0-1.627429 1.298286-3.090286 2.925714-3.090286h44.269714c32.896 0 58.459429 22.619429 58.459429 55.68 0 32.566857-25.234286 55.04-58.459429 55.04h-44.269714zM802.816 585.728H221.184a8.228571 8.228571 0 0 1-8.192-8.192V253.952a41.088 41.088 0 0 1 40.96-40.96h516.096a41.088 41.088 0 0 1 40.96 40.96v323.584a8.228571 8.228571 0 0 1-8.192 8.192" fill="#002868" p-id="7262"></path><path d="M542.171429 519.296h-53.248a6.162286 6.162286 0 0 1-6.144-6.144v-225.28c0-3.382857 2.761143-6.144 6.144-6.144h53.248c3.382857 0 6.144 2.742857 6.144 6.144v225.28a6.162286 6.162286 0 0 1-6.144 6.144" fill="#FFFFFF" p-id="7263"></path><path d="M632.832 347.245714H391.168a6.162286 6.162286 0 0 1-6.144-6.125714v-53.248c0-3.382857 2.761143-6.144 6.144-6.144h241.664c3.382857 0 6.144 2.742857 6.144 6.144v53.248a6.162286 6.162286 0 0 1-6.144 6.144" fill="#FFFFFF" p-id="7264"></path></svg>