<?xml version="1.0" standalone="no"?><!DOCTYPE svg PUBLIC "-//W3C//DTD SVG 1.1//EN" "http://www.w3.org/Graphics/SVG/1.1/DTD/svg11.dtd"><svg t="1682411759799" class="icon" viewBox="0 0 1024 1024" version="1.1" xmlns="http://www.w3.org/2000/svg" p-id="6848" xmlns:xlink="http://www.w3.org/1999/xlink" width="200" height="200"><path d="M1024 512c0 282.770286-229.229714 512-512 512S0 794.770286 0 512 229.229714 0 512 0s512 229.229714 512 512" fill="#256FC0" p-id="6849"></path><path d="M418.011429 141.494857v66.834286C288.438857 248.502857 194.102857 369.426286 194.102857 512c0 142.573714 94.354286 263.497143 223.872 303.670857v66.834286C252.525714 840.502857 129.773714 690.322286 129.773714 512S252.525714 183.497143 418.011429 141.494857z m197.156571 2.541714c160.786286 45.147429 279.04 192.950857 279.04 367.963429 0 175.012571-118.253714 322.816-279.04 367.963429V812.617143c124.763429-42.953143 214.710857-161.444571 214.710857-300.617143 0-139.172571-89.965714-257.664-214.710857-300.598857z m-77.129143 106.24c6.948571 0 12.544 5.613714 12.544 12.525715v37.12c59.245714 11.611429 97.005714 52.114286 97.005714 108.178285v1.536a11.885714 11.885714 0 0 1-12.306285 12.288h-36.187429c-7.131429 0-12.306286-4.205714-12.306286-9.965714v-5.412571c0-33.133714-29.805714-56.246857-72.448-56.246857-41.508571 0-69.376 21.979429-69.376 54.710857 0 37.193143 37.851429 50.432 81.664 65.773714 52.333714 17.682286 124.032 41.929143 124.032 119.899429 0 58.258286-38.326857 98.816-100.077714 109.531428v40.594286a12.544 12.544 0 0 1-12.544 12.544h-38.089143a12.544 12.544 0 0 1-12.562285-12.525714V701.074286c-64.292571-9.325714-107.081143-49.554286-107.081143-104.228572v-6.948571a11.885714 11.885714 0 0 1 12.306285-12.288h36.973715c7.241143 0 12.288 4.425143 12.288 10.770286v6.930285c0 32.091429 32.146286 56.265143 74.788571 56.265143 41.289143 0 70.125714-23.771429 70.125714-57.801143 0-38.070857-38.564571-51.145143-83.181714-66.267428-51.492571-17.426286-120.996571-40.905143-120.996571-119.405715 0-59.885714 40.32-101.028571 104.777143-109.860571v-35.437714c0-6.912 5.632-12.525714 12.562285-12.525715z" fill="#FFFFFF" p-id="6850"></path></svg>