<?xml version="1.0" standalone="no"?><!DOCTYPE svg PUBLIC "-//W3C//DTD SVG 1.1//EN" "http://www.w3.org/Graphics/SVG/1.1/DTD/svg11.dtd"><svg t="1682411808125" class="icon" viewBox="0 0 1024 1024" version="1.1" xmlns="http://www.w3.org/2000/svg" p-id="7399" xmlns:xlink="http://www.w3.org/1999/xlink" width="200" height="200"><path d="M512 0C229.723429 0 0 229.668571 0 512c0 282.331429 229.705143 512 512 512 282.331429 0 512-229.668571 512-512C1024 229.686857 794.331429 0 512 0" fill="#216C58" p-id="7400"></path><path d="M717.348571 206.592v-10.24c0-7.698286-7.716571-17.993143-17.974857-17.993143H358.016c-7.68 0-17.956571 10.294857-17.956571 17.993143v10.24a17.554286 17.554286 0 0 0 17.956571 17.956571h341.357714a17.554286 17.554286 0 0 0 17.956572-17.956571M511.963429 269.622857v-27.245714h-46.189715v31.616a296.777143 296.777143 0 0 1 46.189715-4.388572M583.844571 274.742857v-32.347428h-46.226285v27.245714c15.908571 0.731429 31.341714 2.304 46.226285 5.101714M555.593143 871.204571h10.276571a17.554286 17.554286 0 0 0 17.993143-17.974857v-13.293714h0.018286v-25.197714c22.820571-3.090286 41.782857-8.228571 57.965714-15.652572 35.145143-12.836571 59.008-29.513143 75.721143-53.613714 17.938286-25.435429 26.697143-52.370286 26.697143-82.157714 0-21.302857-4.644571-40.557714-14.153143-56.978286a167.954286 167.954286 0 0 0-36.443429-43.885714c-14.592-12.068571-35.145143-22.308571-54.674285-32.091429-17.188571-6.4-36.425143-12.068571-55.131429-16.676571l-14.665143-3.072-31.561143-6.418286-19.748571-3.84c-2.066286-0.530286-4.132571-0.786286-5.924571-1.298286-10.258286-2.048-18.962286-4.370286-27.721143-6.674285a79.305143 79.305143 0 0 1-18.468572-6.674286 99.968 99.968 0 0 1-12.580571-7.186286 137.874286 137.874286 0 0 1-19.510857-16.676571l-1.536-2.304c-2.816-5.394286-6.162286-12.068571-6.162286-22.052572 0-9.508571 3.346286-22.107429 10.294857-29.293714 9.984-9.746286 17.938286-15.616 29.494857-20.516571v77.238857a77.897143 77.897143 0 0 0 22.857143 10.276571c7.424 1.828571 14.866286 3.584 23.332572 5.650286v-58.660572h0.054857V377.417143c3.346286-0.256 6.656-0.256 10.221714-0.256 5.376 0 10.514286 0.256 15.396571 0.512v108.306286l35.163429 6.948571c3.620571 0.749714 7.186286 1.517714 11.062857 2.56v-77.531429h0.018286v-28.196571c2.541714 1.28 5.12 2.834286 7.643428 4.333714 10.020571 7.716571 20.022857 16.713143 26.441143 32.347429 5.12 10.514286 11.026286 14.884571 19.748572 14.884571h82.139428a17.664 17.664 0 0 0 13.604572-5.906285 14.573714 14.573714 0 0 0 3.364571-11.776c-2.340571-22.089143-10.550857-41.344-26.697143-62.902858-15.689143-22.326857-40.32-39.753143-75.483428-53.394285a277.284571 277.284571 0 0 0-50.779429-14.098286 299.428571 299.428571 0 0 0-46.226286-5.668571c-5.12-0.237714-10.276571-0.237714-15.396571-0.237715-3.346286 0-6.948571 0-10.276571 0.256a299.702857 299.702857 0 0 0-46.189715 4.608 307.638857 307.638857 0 0 0-55.698285 15.140572c-30.025143 11.556571-58.002286 30.811429-78.793143 54.180571-18.962286 23.844571-28.489143 50.541714-28.489143 81.078857 0 38.784 14.372571 69.302857 42.642286 90.331429 31.542857 23.881143 70.034286 40.557714 114.468571 49.810286l5.851429 1.298285v115.730286c1.042286 0.512 1.828571 1.024 2.834285 1.28 12.617143 4.114286 26.953143 6.674286 43.373715 7.186286V648.045714h0.054857v-54.765714l12.032 2.267429c4.864 1.316571 9.508571 2.340571 13.586285 3.602285V707.712c12.068571-1.024 22.070857-3.328 30.025143-6.4 5.906286-2.066286 11.300571-4.388571 16.201143-7.460571V648.045714h0.018286v-33.462857c9.728 4.096 19.218286 9.197714 26.88 16.896 8.484571 8.484571 12.854857 18.486857 12.854857 29.257143 0 12.836571-3.309714 22.089143-12.068571 33.883429a92.214857 92.214857 0 0 1-27.684572 19.510857c-3.108571 1.536-6.418286 2.816-10.057143 4.096-9.197714 3.602286-21.796571 6.162286-36.169143 7.186285-5.650286 0.512-11.812571 0.804571-17.938285 0.804572-2.596571 0-5.156571 0-7.734857-0.292572-17.188571-0.256-32.585143-2.56-46.189715-6.912-1.024-0.237714-1.792-0.530286-2.797714-0.786285-17.993143-6.144-31.853714-15.140571-40.32-26.422857-5.613714-8.466286-11.300571-16.694857-14.08-25.673143-1.828571-8.722286-7.734857-16.914286-19.803429-16.914286H306.651429a18.212571 18.212571 0 0 0-13.586286 6.144 14.445714 14.445714 0 0 0-3.108572 11.794286c2.322286 29.001143 11.812571 53.394286 29.019429 75.465143 20.260571 25.417143 47.213714 44.141714 80.585143 55.954285 21.302857 7.68 43.154286 13.074286 66.194286 16.164572v38.509714a17.554286 17.554286 0 0 0 17.974857 17.956571h10.294857c10.24 0 17.938286-7.698286 17.938286-17.974857v-13.293714h0.054857v-3.620571c3.346286 0.237714 6.875429 0.237714 10.221714 0.237714 5.376 0 10.514286 0 15.396571-0.237714v16.914285a17.554286 17.554286 0 0 0 17.956572 17.974857" fill="#FFFFFF" p-id="7401"></path><path d="M60.324571 486.345143c7.698286 0 12.836571-5.12 12.836572-12.836572C93.696 247.68 281.033143 73.142857 512 73.142857s418.322286 177.078857 438.875429 400.365714c0 7.698286 7.698286 12.836571 12.836571 12.836572 7.68 0 12.836571-7.68 12.836571-15.396572C955.977143 232.265143 755.84 44.891429 512 44.891429c-243.803429 0-443.995429 187.373714-464.530286 426.057142-2.596571 7.698286 5.12 15.396571 12.836572 15.396572M963.730286 537.673143c-7.716571 0-12.836571 5.138286-12.836572 12.836571C930.340571 776.356571 742.985143 953.453714 512 953.453714S93.696 776.356571 73.161143 550.509714c0-7.698286-7.698286-12.836571-12.836572-12.836571-7.68 0-12.836571 7.698286-12.836571 15.396571C68.022857 791.771429 268.196571 979.126857 512 979.126857c243.821714 0 444.013714-187.373714 464.566857-426.057143 2.56-7.68-5.12-15.396571-12.836571-15.396571" fill="#FFFFFF" p-id="7402"></path></svg>