<?xml version="1.0" standalone="no"?><!DOCTYPE svg PUBLIC "-//W3C//DTD SVG 1.1//EN" "http://www.w3.org/Graphics/SVG/1.1/DTD/svg11.dtd"><svg t="1682411715942" class="icon" viewBox="0 0 1024 1024" version="1.1" xmlns="http://www.w3.org/2000/svg" p-id="6711" xmlns:xlink="http://www.w3.org/1999/xlink" width="200" height="200"><path d="M512 512m-512 0a512 512 0 1 0 1024 0 512 512 0 1 0-1024 0Z" fill="#4CBF8E" p-id="6712"></path><path d="M754.56 574.482286c-64.64 12.763429-150.802286 19.785143-242.56 19.785143-91.776 0-177.92-7.021714-242.56-19.785143-74.422857-14.683429-90.514286-31.561143-90.514286-34.944 0-3.401143 16.091429-20.260571 90.514286-34.962286 46.043429-9.088 102.985143-15.268571 165.101714-18.066286V552.228571c0 9.508571 7.698286 17.225143 17.206857 17.225143h120.502858c9.508571 0 17.206857-7.716571 17.206857-17.225143v-65.718857c62.116571 2.797714 119.058286 8.978286 165.12 18.066286 74.404571 14.701714 90.514286 31.561143 90.514285 34.962286 0 3.382857-16.109714 20.260571-90.514285 34.925714m82.742857-74.002286c-18.468571-8.612571-44.525714-16.274286-77.458286-22.784-47.616-9.398857-106.422857-15.762286-170.404571-18.614857v-89.837714h196.937143c9.508571 0 17.206857-7.698286 17.206857-17.225143v-120.576a17.225143 17.225143 0 0 0-17.188572-17.225143H237.586286a17.225143 17.225143 0 0 0-17.206857 17.225143v120.576c0 9.508571 7.698286 17.225143 17.188571 17.225143h196.937143v89.837714c-63.963429 2.852571-122.770286 9.216-170.386286 18.614857-32.932571 6.491429-58.989714 14.171429-77.458286 22.784-8.704 4.059429-35.163429 16.402286-35.163428 39.076572 0 22.656 26.459429 34.998857 35.163428 39.058285 18.468571 8.630857 44.525714 16.274286 77.458286 22.784 47.817143 9.453714 106.916571 15.835429 171.190857 18.651429a17.298286 17.298286 0 0 0-0.786285 5.174857v198.710857c0 9.508571 7.698286 17.225143 17.206857 17.225143h120.502857c9.508571 0 17.206857-7.716571 17.206857-17.225143V625.206857a17.243429 17.243429 0 0 0-0.786286-5.174857c64.274286-2.816 123.373714-9.197714 171.190857-18.651429 32.932571-6.491429 58.989714-14.153143 77.458286-22.784 8.704-4.059429 35.163429-16.402286 35.163429-39.058285 0-22.674286-26.459429-35.017143-35.163429-39.076572" fill="#FFFFFF" p-id="6713"></path></svg>