<?xml version="1.0" standalone="no"?><!DOCTYPE svg PUBLIC "-//W3C//DTD SVG 1.1//EN" "http://www.w3.org/Graphics/SVG/1.1/DTD/svg11.dtd"><svg t="1663921843265" class="icon" viewBox="0 0 1024 1024" version="1.1" xmlns="http://www.w3.org/2000/svg" p-id="7912" xmlns:xlink="http://www.w3.org/1999/xlink" width="30" height="30"><path d="M579.52 221.312l5.312 4.48 256 256 0.832 0.896a42.88 42.88 0 0 1 2.816 3.2l-3.648-4.032a42.88 42.88 0 0 1 12.48 30.144 42.496 42.496 0 0 1-8 24.896l-0.704 1.024a42.88 42.88 0 0 1-2.752 3.2l-1.024 1.024-256 256a42.688 42.688 0 0 1-64.832-55.04l4.48-5.248 183.168-183.232H213.312a42.688 42.688 0 0 1-6.272-84.8l6.272-0.512h494.336L524.48 286.144a42.688 42.688 0 0 1 55.04-64.832z" p-id="7913" fill="#7033ff"></path></svg>