<svg width="24px" height="24px" viewBox="0 0 24 24" version="1.1" xmlns="http://www.w3.org/2000/svg" xmlns:xlink="http://www.w3.org/1999/xlink">
    <title>切片</title>
    <defs>
        <filter color-interpolation-filters="auto" id="filter-1">
            <feColorMatrix in="SourceGraphic" type="matrix" values="0 0 0 0 1.000000 0 0 0 0 1.000000 0 0 0 0 1.000000 0 0 0 1.000000 0"></feColorMatrix>
        </filter>
    </defs>
    <g id="新版" stroke="none" stroke-width="1" fill="none" fill-rule="evenodd">
        <g id="2-3KYT-Address" transform="translate(-577.000000, -308.000000)">
            <g id="Light-/-Buttons-/-Secondary-/-Small-/-icon备份" transform="translate(553.002053, 292.000000)">
                <g id="Icon-/-币种-/-ETH_bg" transform="translate(24.000000, 16.000000)">
                    <circle id="椭圆形" fill="#4CBF8E" cx="12" cy="12" r="12"></circle>
                    <g id="Icon-/-币种-/-ETH2备份" transform="translate(1.714286, 1.714286)" filter="url(#filter-1)">
                        <g>
                            <path d="M15.9708126,11.750116 C14.455541,12.0492196 12.4364903,12.2139556 10.2856942,12.2139556 C8.13489816,12.2139556 6.1158474,12.0492196 4.60057586,11.750116 C2.85653637,11.4058616 2.47900302,11.0103908 2.47900302,10.9309753 C2.47900302,10.8515197 2.85653637,10.4560891 4.60057586,10.1118347 C5.67974721,9.89881474 7.01450121,9.75404312 8.47024251,9.68828531 L8.47024251,11.2283918 C8.47024251,11.4513337 8.65084034,11.6320974 8.87362716,11.6320974 L11.6977613,11.6320974 C11.9205481,11.6320974 12.1011459,11.4513337 12.1011459,11.2283918 L12.1011459,9.68828531 C13.5568872,9.75404312 14.8916412,9.89881474 15.9708126,10.1118347 C17.7148521,10.4560891 18.0924256,10.8515197 18.0924256,10.9309753 C18.0924256,11.0103908 17.7148521,11.4058616 15.9708126,11.750116 M17.9105432,10.0152667 C17.4777346,9.81325327 16.8669374,9.63361434 16.0951316,9.48129082 C14.978789,9.26091981 13.6006016,9.11164919 12.1011459,9.04496748 L12.1011459,6.93951251 L16.7168875,6.93951251 C16.9396743,6.93951251 17.1202722,6.75878901 17.1202722,6.53584714 L17.1202722,3.70978782 C17.1202722,3.48684596 16.9396743,3.30612245 16.7168875,3.30612245 L11.6977613,3.30612245 L8.87362716,3.30612245 L3.85450092,3.30612245 C3.63171409,3.30612245 3.45111627,3.48684596 3.45111627,3.70978782 L3.45111627,6.53584714 C3.45111627,6.75878901 3.63171409,6.93951251 3.85450092,6.93951251 L8.47024251,6.93951251 L8.47024251,9.04496748 C6.97078683,9.11164919 5.59259943,9.26091981 4.4762568,9.48129082 C3.70445098,9.63361434 3.0936538,9.81325327 2.66084524,10.0152667 C2.45704547,10.1103886 1.83673469,10.3998515 1.83673469,10.9309753 C1.83673469,11.4620992 2.45700533,11.7515621 2.66084524,11.8466839 C3.0936538,12.0486974 3.70445098,12.2283363 4.4762568,12.3807 C5.59717559,12.6019548 6.98214695,12.7515467 8.48878801,12.8177866 C8.47682576,12.8560281 8.47024251,12.8967602 8.47024251,12.9389786 L8.47024251,17.5963346 C8.47024251,17.8192765 8.65084034,18 8.87362716,18 L11.6977613,18 C11.9205481,18 12.1011459,17.8192765 12.1011459,17.5963346 L12.1011459,12.9389786 C12.1011459,12.8967602 12.0946028,12.8560281 12.0826004,12.8177866 C13.5892415,12.7515467 14.9742128,12.6019548 16.0951316,12.3807 C16.8669374,12.2283363 17.4777346,12.0486974 17.9105432,11.8466839 C18.1143831,11.7515621 18.7346939,11.4620992 18.7346939,10.9309753 C18.7346939,10.3998515 18.114343,10.1103886 17.9105432,10.0152667" id="Fill-1" fill="#4CBF8E"></path>
                        </g>
                    </g>
                </g>
            </g>
        </g>
    </g>
</svg>