<svg version="1.1" id="图层_1" xmlns="http://www.w3.org/2000/svg" xmlns:xlink="http://www.w3.org/1999/xlink"
	 viewBox="0 0 16 16">
<g id="Icon-_x2F_-system-_x2F_-scissors">
	<path id="形状" d="M8.8,5c0,0.4,0.1,0.7,0.3,1L7.7,7.3l-3.2-3c-0.4-0.4-1.1-0.4-1.5,0L6.9,8L3,11.7c0.4,0.4,1.1,0.4,1.5,0l3.2-3
		L9.1,10c-0.2,0.3-0.3,0.6-0.3,1c0,1.1,1,2,2.1,2s2.1-0.9,2.1-2s-1-2-2.1-2c-0.4,0-0.7,0.1-1.1,0.3L8.4,8l1.4-1.3
		C10.1,6.9,10.5,7,10.9,7C12,7,13,6.1,13,5s-1-2-2.1-2S8.8,3.9,8.8,5L8.8,5z M12,11c0,0.6-0.5,1-1.1,1c-0.6,0-1.1-0.4-1.1-1
		s0.5-1,1.1-1C11.5,10,12,10.4,12,11z M12,5c0,0.6-0.5,1-1.1,1c-0.6,0-1.1-0.4-1.1-1s0.5-1,1.1-1C11.5,4,12,4.4,12,5z" fill="#99A2B3"/>
</g>
</svg>
