<?xml version="1.0" encoding="UTF-8"?>
<svg width="20px" height="20px" viewBox="0 0 20 20" version="1.1" xmlns="http://www.w3.org/2000/svg" xmlns:xlink="http://www.w3.org/1999/xlink">
    <title>11</title>
    <g id="11" stroke="none" stroke-width="1" fill="none" fill-rule="evenodd">
        <circle id="椭圆形" fill="#FFFFFF" cx="10" cy="10" r="10"></circle>
        <path d="M10,0 C15.5228475,0 20,4.4771525 20,10 C20,15.5228475 15.5228475,20 10,20 C4.4771525,20 0,15.5228475 0,10 C0,4.4771525 4.4771525,0 10,0 Z M10,1 C5.02943725,1 1,5.02943725 1,10 C1,14.9705627 5.02943725,19 10,19 C14.9705627,19 19,14.9705627 19,10 C19,5.02943725 14.9705627,1 10,1 Z" id="椭圆形备份" fill="#B2B9C5" fill-rule="nonzero"></path>
        <path d="M7.58317246,9.00000968 L7.58317246,13.3750028 L8.89824656,13.3750028 L8.89824656,9.00000968 L11.083037,9.00000968 L11.083037,13.3750028 L12.3954862,13.3750028 L12.3954862,9.00000968 L14.5829016,9.00000968 L14.5829016,13.3750028 L15.7151077,13.3750028 L15.7151077,15.125 L4.34054794,15.125 L4.34054794,13.3750028 L5.39575711,13.3750028 L5.39575711,9.00000968 L7.58317246,9.00000968 Z M9.99982893,2.87500951 C10.046474,2.87500951 10.0926309,2.88451454 10.1354487,2.90301932 L10.1958213,2.93626927 L15.9898471,7.07763772 C16.1070334,7.15990423 16.1546917,7.31040958 16.1062176,7.44513714 C16.0682028,7.55422163 15.9765583,7.63594376 15.863852,7.6612618 L15.7938547,7.66826179 L4.20580317,7.66826179 C4.06268711,7.6748266 3.93364655,7.58265134 3.89344025,7.44513714 C3.85412842,7.3353324 3.87870285,7.21279236 3.95731278,7.12663764 L4.00981075,7.07763772 L9.80383651,2.93626927 C9.86117509,2.89589942 9.9297074,2.87448228 9.99982893,2.87500951 Z" id="形状结合" fill="#66738C" fill-rule="nonzero"></path>
    </g>
</svg>