<?xml version="1.0" encoding="UTF-8"?>
<svg width="16px" height="16px" viewBox="0 0 16 16" version="1.1" xmlns="http://www.w3.org/2000/svg" xmlns:xlink="http://www.w3.org/1999/xlink">
    <title>编组 35</title>
    <g id="一期" stroke="none" stroke-width="1" fill="none" fill-rule="evenodd">
        <g id="链必追-资金追踪" transform="translate(-1115.000000, -555.000000)">
            <g id="编组-33备份-2" transform="translate(1079.000000, 555.000000)">
                <g id="编组-25备份-4" transform="translate(36.000000, 0.000000)">
                    <rect id="矩形" fill="#D8DCE6" opacity="0.497774346" x="0" y="0" width="16" height="16" rx="8"></rect>
                    <g id="机构信息" transform="translate(4.000000, 4.000000)" fill-rule="nonzero">
                        <rect id="矩形" fill="#000000" opacity="0" x="4.30757318e-05" y="1.21711537e-06" width="7.99940478" height="7.99940478"></rect>
                        <path d="M5.56419254,3.99970932 L6.99265564,3.99970932 L6.99265564,6.85663552 L7.73202814,6.85663552 L7.73202814,7.999406 L0.30402002,7.999406 L0.30402002,6.85663552 L5.56419254,6.85663552 L5.56419254,3.99970932 Z M4.70711468,3.99970932 L4.70711468,6.85663552 L3.28036574,6.85663552 L3.28036574,3.99970932 L4.70597191,3.99970932 L4.70711468,3.99970932 Z M2.42157372,3.99970932 L2.42157372,6.85663552 L0.993110621,6.85663552 L0.993110621,3.99970932 L2.42043095,3.99970932 L2.42157372,3.99970932 Z M3.99973976,6.20721494e-06 C4.03020072,6.20721494e-06 4.06034286,0.00621311491 4.08830446,0.018296973 L4.12773005,0.0400096152 L7.9114431,2.74437595 C7.98797008,2.79809703 8.01909269,2.89637894 7.98743734,2.98435775 C7.96261226,3.05559131 7.90276502,3.10895691 7.82916363,3.12548991 L7.78345281,3.13006099 L0.2160267,3.13006099 C0.122566625,3.13434789 0.0382983627,3.07415628 0.0120421673,2.98435775 C-0.0136299122,2.91265386 0.0024180969,2.83263365 0.0537532902,2.77637352 L0.0880364034,2.74437595 L3.87174946,0.0400096152 C3.90919367,0.0136475862 3.95394781,-0.000338080487 3.99973976,6.20721494e-06 Z" id="形状" fill="#0468C2"></path>
                    </g>
                </g>
            </g>
        </g>
    </g>
</svg>