<?xml version="1.0" encoding="UTF-8"?>
<svg width="20px" height="20px" viewBox="0 0 20 20" version="1.1" xmlns="http://www.w3.org/2000/svg" xmlns:xlink="http://www.w3.org/1999/xlink">
    <g id="一期" stroke="none" stroke-width="1" fill="none" fill-rule="evenodd">
        <g id="链必追-资金追踪" transform="translate(-542.000000, -345.000000)" fill="#2979FF" fill-rule="nonzero">
            <g id="编组-26" transform="translate(277.000000, 257.000000)">
                <g id="编组-22" transform="translate(239.157063, 0.000000)">
                    <g id="编组-18" transform="translate(133.842937, 143.000000) scale(-1, 1) translate(-133.842937, -143.000000) translate(11.842937, 27.000000)">
                        <g id="编组-6备份" transform="translate(220.000000, 116.000000) scale(-1, 1) translate(-220.000000, -116.000000) translate(200.000000, 0.000000)">
                            <g id="编组-24备份" transform="translate(10.000000, 61.000000)">
                                <path d="M13.32169,0 L13.32169,2.85062714 C13.32169,3.13949069 13.3682635,3.45115926 13.4614105,3.78563284 C13.5545576,4.12010642 13.7020404,4.42797415 13.9038589,4.70923603 C14.1056775,4.99049791 14.3618319,5.22614975 14.672322,5.41619156 C14.9828122,5.60623337 15.3476381,5.70125428 15.7667997,5.70125428 L19.1666667,5.70125428 L19.1666667,17.1265678 C19.1666667,17.5674648 19.0774008,17.9627518 18.8988689,18.3124287 C18.7203371,18.6621057 18.4835884,18.9623717 18.1886228,19.2132269 C17.8936571,19.4640821 17.5676425,19.6579247 17.2105788,19.7947548 C16.8535152,19.9315849 16.5042138,20 16.1626747,20 L4.67065868,20 C4.37569306,20 4.05355955,19.9163816 3.70425815,19.7491448 C3.35495675,19.581908 3.02894212,19.3614595 2.72621424,19.0877993 C2.42348636,18.8141391 2.17121313,18.4986697 1.96939454,18.1413911 C1.76757596,17.7841125 1.66666667,17.4154314 1.66666667,17.0353478 L1.66666667,2.94184721 C1.66666667,2.62257697 1.7442892,2.28810338 1.89953426,1.93842645 C2.05477933,1.58874952 2.26047904,1.27328012 2.5166334,0.992018244 C2.77278776,0.710756366 3.06387226,0.475104523 3.38988689,0.285062714 C3.71590153,0.0950209046 4.05744067,0 4.41450432,0 L13.32169,0 Z M5.92128163,9.69174904 C5.23127726,9.01731201 4.16490402,8.88043376 3.32072411,9.35794494 C2.4765442,9.83545612 2.06477384,10.8084477 2.31654241,11.7307733 C2.56831097,12.6530988 3.42092348,13.2950824 4.39580302,13.2963744 C4.74782723,13.2977143 5.09470241,13.2135882 5.40540401,13.0515203 L5.40540401,13.0515203 L7.47840918,15.0754415 C7.12281328,15.8649676 7.42449579,16.7902223 8.18150809,17.231833 C8.93852038,17.6734436 9.9129813,17.4926398 10.4525791,16.810453 C10.9921769,16.1282662 10.92735,15.1590647 10.3014941,14.5516395 C10.2348628,14.4888982 10.1628616,14.4318666 10.0862813,14.3811714 L10.0862813,14.3811714 L10.3584622,12.8531574 C10.4673495,12.8286829 10.5733971,12.7933727 10.6749515,12.7477771 L10.6749515,12.7477771 L12.738462,14.7685989 C12.2421042,15.6912257 12.5081787,16.8305583 13.3647051,17.4501758 C14.2212315,18.0697932 15.4114469,17.9839512 16.1660415,17.2481349 C17.0079305,16.4228182 17.0079305,15.0856107 16.1660415,14.260294 C15.4963541,13.6066077 14.4701835,13.4558664 13.6341268,13.8883636 L13.6341268,13.8883636 L11.5737812,11.8675418 C11.9293771,11.0780157 11.6276946,10.152761 10.8706823,9.71115035 C10.11367,9.26953971 9.1392091,9.45034354 8.59961133,10.1325303 C8.06001355,10.8147171 8.12484042,11.7839186 8.75069632,12.3913438 C8.85770112,12.4904729 8.97550984,12.5777811 9.10199949,12.6516951 L9.10199949,12.6516951 L8.85197291,14.0712294 C8.68514917,14.0886532 8.52192993,14.1304421 8.36774422,14.1952062 L8.36774422,14.1952062 L6.30423373,12.1743844 C6.46972524,11.8701104 6.55562849,11.5304112 6.55426031,11.1856695 C6.55454327,10.6250729 6.32675683,10.0874642 5.92128163,9.69174904 Z M14.8353293,0 C14.9750499,0 15.1070082,0.0152033447 15.2312043,0.0456100342 C15.3554003,0.0760167237 15.5067642,0.148232611 15.6852961,0.262257697 C15.8638279,0.376282782 16.081171,0.535917902 16.3373253,0.741163056 C16.5934797,0.94640821 16.9156132,1.21626758 17.3037259,1.55074116 C17.7228876,1.91562144 18.0566644,2.22348917 18.3050566,2.47434436 C18.5534487,2.72519954 18.7436239,2.93804637 18.8755822,3.11288483 C19.0075405,3.2877233 19.0890441,3.43595591 19.1200931,3.55758267 C19.1511422,3.67920943 19.1666667,3.78563284 19.1666667,3.87685291 L19.1666667,4.24173318 L15.743513,4.24173318 C15.5727434,4.24173318 15.4291417,4.18472064 15.3127079,4.07069555 C15.1962741,3.95667047 15.099246,3.8236412 15.0216234,3.67160775 C14.9440009,3.51957431 14.885784,3.36374002 14.8469727,3.2041049 C14.8081615,3.04446978 14.7887558,2.91144052 14.7887558,2.8050171 L14.7887558,0 L14.8353293,0 Z" id="形状结合"></path>
                            </g>
                        </g>
                    </g>
                </g>
            </g>
        </g>
    </g>
</svg>