<?xml version="1.0" standalone="no"?><!DOCTYPE svg PUBLIC "-//W3C//DTD SVG 1.1//EN" "http://www.w3.org/Graphics/SVG/1.1/DTD/svg11.dtd"><svg t="1683266082285" class="icon" viewBox="0 0 1290 1024" version="1.1" xmlns="http://www.w3.org/2000/svg" p-id="5945" xmlns:xlink="http://www.w3.org/1999/xlink" width="251.953125" height="200"><path d="M320.34816 0C284.79488 0 256 28.64128 256 64v896c0 35.35872 28.79488 64 64.34816 64h643.47136c35.55328 0 64.34816-28.64128 64.34816-64V264.64256L762.09152 0h-441.7536z" fill="#ECF3F9" p-id="5946"></path><path d="M1027.84 264.32512v0.3072H826.08128c-35.52256 0-64.3072-28.63104-64.3072-63.95904V0h0.3072l265.75872 264.32512z" fill="#F9FCFF" p-id="5947"></path><path d="M692.35712 246.45632h-321.7408c-8.87808 0-16.0768-7.168-16.0768-16.00512 0-8.82688 7.19872-15.99488 16.0768-15.99488h321.7408c8.87808 0 16.0768 7.168 16.0768 15.99488 0 8.83712-7.19872 16.00512-16.0768 16.00512M901.8368 643.64544H370.61632c-8.87808 0-16.0768-7.168-16.0768-15.99488V332.34944c0-8.82688 7.19872-15.99488 16.0768-15.99488H901.8368c8.87808 0 16.0768 7.168 16.0768 15.99488v295.30112c0 8.82688-7.19872 15.99488-16.0768 15.99488" fill="#FFFFFF" p-id="5948"></path><path d="M539.83232 424.06912m-40.06912 0a40.06912 40.06912 0 1 0 80.13824 0 40.06912 40.06912 0 1 0-80.13824 0Z" fill="#ECF3F9" p-id="5949"></path><path d="M697.06752 430.08C758.86592 430.08 808.96 480.98304 808.96 543.77472c0 14.04928-2.5088 27.4944-7.08608 39.90528H481.29024l0.03072-1.82272c1.31072-43.68384 36.57728-78.68416 79.872-78.68416 10.37312 0 20.28544 2.00704 29.37856 5.66272C605.07136 463.13472 647.2704 430.08 697.06752 430.08z" fill="#ECF3F9" p-id="5950"></path><path d="M901.8368 744.51968H370.61632c-8.87808 0-16.0768-7.168-16.0768-15.99488 0-8.83712 7.19872-16.00512 16.0768-16.00512H901.8368c8.87808 0 16.0768 7.168 16.0768 16.00512 0 8.82688-7.19872 15.99488-16.0768 15.99488M901.8368 835.81952H370.61632c-8.87808 0-16.0768-7.168-16.0768-15.99488 0-8.83712 7.19872-16.00512 16.0768-16.00512H901.8368c8.87808 0 16.0768 7.168 16.0768 16.00512 0 8.82688-7.19872 15.99488-16.0768 15.99488" fill="#FFFFFF" p-id="5951"></path><path d="M1022.22848 798.23872c-75.0592 74.6496-196.77184 74.6496-271.83104 0-75.0592-74.6496-75.0592-195.6864 0-270.36672 75.0592-74.6496 196.7616-74.6496 271.83104 0 75.0592 74.68032 75.0592 195.70688 0 270.36672" fill="#FFFFFF" fill-opacity=".6" p-id="5952"></path><path d="M761.856 518.79936c80.04608-79.62624 209.8176-79.62624 289.87392 0 77.02528 76.62592 79.9744 199.04512 8.83712 279.16288l74.8544 74.4448a12.8 12.8 0 0 1-16.9984 19.07712l-1.04448-0.9216-74.9568-74.5472c-80.49664 70.8096-203.55072 67.91168-280.576-8.704-80.08704-79.6672-80.08704-208.83456 0-288.512z m271.8208 18.15552c-70.07232-69.69344-183.7056-69.69344-253.77792 0-70.03136 69.66272-70.03136 182.55872 0 252.2112 70.07232 69.6832 183.7056 69.6832 253.77792 0 70.03136-69.65248 70.03136-182.54848 0-252.2112z" fill="#ECF3F9" p-id="5953"></path></svg>