<?xml version="1.0" encoding="UTF-8"?>
<svg width="20px" height="20px" viewBox="0 0 20 20" version="1.1" xmlns="http://www.w3.org/2000/svg" xmlns:xlink="http://www.w3.org/1999/xlink">
    <title>user</title>
    <g id="界面" stroke="none" stroke-width="1" fill="none" fill-rule="evenodd">
        <g id="4-1Path-Tracing-BTC" transform="translate(-1393.000000, -850.000000)">
            <g id="user" transform="translate(1393.000000, 850.000000)">
                <path d="M10,0 C15.5228475,0 20,4.4771525 20,10 C20,15.5228475 15.5228475,20 10,20 C4.4771525,20 0,15.5228475 0,10 C0,4.4771525 4.4771525,0 10,0 Z" id="路径" fill="#CCD0D9" fill-rule="nonzero"></path>
                <path d="M10,1 C5.02943725,1 1,5.02943725 1,10 C1,14.9705627 5.02943725,19 10,19 C14.9705627,19 19,14.9705627 19,10 C19,5.02943725 14.9705627,1 10,1 Z" id="路径" fill="#FFFFFF" fill-rule="nonzero"></path>
                <path d="M10,9.42581759 C12.6121076,9.42581759 14.764574,11.4203577 15,13.9608892 C14.8430493,14.1291437 14.6748879,14.2739986 14.4966368,14.4177391 C13.2623318,15.3982952 11.705157,16 10,16 C8.29596413,16 6.73878924,15.3982952 5.5044843,14.4177391 C5.32511211,14.2739986 5.15807175,14.1291437 5,13.9608892 C5.23542601,11.4203577 7.38789238,9.42581759 10,9.42581759 Z M10,4 C11.3688341,4 12.4899103,5.10312552 12.4899103,6.46253273 C12.4899103,7.82193994 11.3688341,8.93620815 10,8.93620815 C8.632287,8.93620815 7.52242152,7.82193994 7.52242152,6.46253273 C7.52242152,5.10312552 8.632287,4 10,4 Z" id="形状结合备份" fill="#66738C"></path>
            </g>
        </g>
    </g>
</svg>