<?xml version="1.0" encoding="utf-8"?>
<!-- Generator: Adobe Illustrator 25.0.0, SVG Export Plug-In . SVG Version: 6.00 Build 0)  -->
<svg version="1.1" id="BACKGROUND" xmlns="http://www.w3.org/2000/svg" xmlns:xlink="http://www.w3.org/1999/xlink" x="0px" y="0px"
	 viewBox="0 0 3200 740" style="enable-background:new 0 0 3200 740;" xml:space="preserve">
<style type="text/css">
	.st0{fill:#D1DFEB;}
</style>
<g>
	<path class="st0" d="M1214.809,739.66l-72.185-33.685l-83.329-111.96c0.776-0.705,1.271-1.711,1.271-2.842
		c0-2.127-1.725-3.852-3.852-3.852s-3.852,1.725-3.852,3.852c0,0.894,0.317,1.707,0.829,2.361l-33.562,32.044l-39.911-32.286
		c0.402-0.608,0.639-1.335,0.639-2.119c0-2.127-1.725-3.852-3.852-3.852s-3.852,1.725-3.852,3.852c0,0.11,0.023,0.213,0.032,0.321
		l-130.964,24.227l-0.026,0.005c-0.464-1.606-1.929-2.788-3.684-2.788c-1.021,0-1.943,0.404-2.633,1.053l-71.771-62.763
		l-0.021-0.018c0.452-0.631,0.726-1.4,0.726-2.236c0-2.128-1.725-3.852-3.852-3.852c-2.106,0-3.811,1.691-3.846,3.789
		l-118.496,9.805l-0.016,0.001c-0.326-1.797-1.892-3.161-3.782-3.161c-1.691-0.001-3.112,1.096-3.63,2.612l-80.989-19.106
		l-0.466-109.484l0-0.035c1.94-0.2,3.457-1.82,3.457-3.812c0-2.128-1.725-3.852-3.852-3.852c-1.236,0-2.323,0.592-3.028,1.497
		L443.47,358.523l-0.024-0.015c0.259-0.518,0.418-1.094,0.418-1.712c0-2.128-1.725-3.852-3.852-3.852
		c-2.127-0.001-3.852,1.724-3.852,3.852c0,1.065,0.432,2.028,1.13,2.725l-0.01,0.012c0,0,0,0,0,0l-70.641,86.292
		c-0.611-0.408-1.344-0.647-2.134-0.647c-0.469,0-0.913,0.096-1.329,0.249l-92.578-191.591l-0.009-0.018
		c1.159-0.664,1.949-1.899,1.949-3.33c0-2.127-1.725-3.852-3.852-3.852c-1.167,0-2.2,0.53-2.906,1.35l-101.377-74.319l-0.02-0.015
		c0.341-0.575,0.55-1.238,0.55-1.954c0-2.018-1.558-3.655-3.534-3.82l-2.132-141.274l-0.001-0.063
		c1.7-0.401,2.969-1.918,2.969-3.741c0-2.127-1.725-3.852-3.852-3.852c-1.672,0-3.081,1.072-3.614,2.561L59.055,0.185
		c-0.201-0.042-0.403,0.082-0.448,0.285c-0.045,0.202,0.083,0.402,0.285,0.448l95.694,21.321c-0.027,0.185-0.057,0.37-0.057,0.562
		c0,0.535,0.11,1.044,0.307,1.507L64.977,67.594L0.275-2.125c-0.141-0.153-0.379-0.161-0.53-0.02
		c-0.152,0.141-0.161,0.378-0.02,0.53l64.547,69.549L-0.163,98.972c-0.187,0.09-0.265,0.314-0.175,0.5
		c0.064,0.134,0.199,0.212,0.338,0.212c0.054,0,0.11-0.012,0.162-0.037l64.643-31.139l34.598,37.279l-26.114,36.752L0.117,118.564
		c-0.196-0.064-0.409,0.043-0.473,0.24s0.043,0.409,0.24,0.473l72.951,23.903l-73.14,102.933c-0.12,0.169-0.081,0.403,0.088,0.523
		c0.066,0.047,0.142,0.069,0.217,0.069c0.118,0,0.233-0.055,0.306-0.158l73.276-103.123l83.742,27.439
		c-0.06,0.269-0.096,0.547-0.096,0.835c0,0.758,0.227,1.459,0.604,2.055L-0.23,296.754c-0.163,0.127-0.193,0.363-0.065,0.526
		c0.126,0.163,0.362,0.193,0.526,0.065l158.05-122.99l0.013-0.01c0.596,0.627,1.4,1.04,2.302,1.155l-8.024,276.234L0.138,391.352
		c-0.194-0.074-0.411,0.018-0.487,0.211c-0.076,0.192,0.018,0.41,0.21,0.486l152.686,60.483l-1.332,45.982
		c-1.142,0.079-2.141,0.648-2.793,1.507L0.196,408.961c-0.176-0.109-0.407-0.054-0.516,0.123s-0.053,0.407,0.123,0.516
		l148.201,91.05l0.023,0.014c-0.169,0.346-0.284,0.719-0.342,1.114l-112.907-5.542c-0.099-0.002-0.201,0.032-0.276,0.103
		c-0.074,0.069-0.117,0.167-0.118,0.269l-1.47,151.67c-0.001,0.16,0.098,0.303,0.248,0.356c0.15,0.056,0.318,0.007,0.418-0.116
		L147.98,507.26L6.572,734.741c-0.081,0.13-0.075,0.296,0.016,0.419c0.09,0.124,0.244,0.182,0.395,0.143l96.97-24.438l-6.568,29.052
		c-0.046,0.202,0.081,0.403,0.283,0.449c0.028,0.006,0.056,0.009,0.083,0.009c0.171,0,0.326-0.118,0.365-0.292l6.652-29.423
		l123.594-31.147l0.104-0.026c0.081,0.137,0.17,0.266,0.266,0.391L140.56,739.69c-0.171,0.116-0.216,0.35-0.1,0.521
		c0.073,0.106,0.191,0.164,0.311,0.164c0.072,0,0.146-0.021,0.21-0.064l88.273-59.881c0.676,0.587,1.548,0.954,2.513,0.954
		c0.186,0,0.363-0.029,0.542-0.055l17.882,58.78c0.049,0.161,0.198,0.266,0.359,0.266c0.036,0,0.073-0.005,0.109-0.017
		c0.198-0.06,0.31-0.27,0.25-0.468l-17.87-58.729l-0.003-0.009c0.5-0.175,0.951-0.445,1.333-0.797l86.635,54.752l-1.335,4.792
		c-0.056,0.199,0.061,0.406,0.261,0.462c0.034,0.01,0.067,0.014,0.101,0.014c0.165,0,0.315-0.108,0.361-0.274l1.349-4.841
		l120.664-25.413l-27.619,29.898c-0.141,0.152-0.131,0.39,0.021,0.53c0.072,0.066,0.163,0.1,0.254,0.1
		c0.101,0,0.202-0.041,0.275-0.12l28.335-30.675l46.459-9.785c0.011,0.117,0.014,0.237,0.035,0.351l-69.451,39.528
		c-0.18,0.103-0.243,0.332-0.14,0.512c0.069,0.121,0.196,0.189,0.326,0.189c0.062,0,0.126-0.016,0.185-0.049l69.296-39.44
		c0.574,1.406,1.951,2.398,3.563,2.398c0.716,0,1.379-0.209,1.954-0.549l27.379,37.486c0.122,0.167,0.355,0.204,0.524,0.082
		c0.167-0.122,0.204-0.356,0.082-0.523l-27.36-37.471l-0.015-0.02c0.785-0.705,1.289-1.718,1.289-2.856
		c0-0.598-0.148-1.157-0.391-1.662l70.563-23.888l15.135,66.202c0.04,0.174,0.194,0.291,0.365,0.291c0.028,0,0.056-0.003,0.084-0.01
		c0.202-0.046,0.328-0.247,0.282-0.449l-15.151-66.276l57.575-19.491l83.009,65.157l0.016,0.012
		c-0.38,0.597-0.608,1.301-0.608,2.062c0,1.136,0.501,2.147,1.283,2.852l-11.472,15.546c-0.123,0.167-0.087,0.401,0.079,0.524
		c0.167,0.124,0.401,0.088,0.524-0.079l11.472-15.546c0.577,0.345,1.244,0.556,1.965,0.556c2.128,0,3.852-1.725,3.852-3.852
		c0-0.801-0.245-1.544-0.663-2.16l21.044-17.477l18.681,38.421c0.065,0.134,0.199,0.211,0.337,0.211
		c0.055,0,0.111-0.012,0.164-0.038c0.186-0.09,0.264-0.314,0.173-0.501l-18.762-38.586l68.554-56.909l22.441,5.963l-26.111,89.592
		c-0.058,0.198,0.056,0.406,0.255,0.465c0.035,0.01,0.07,0.015,0.105,0.015c0.163,0,0.312-0.106,0.36-0.271l26.116-89.608
		l30.757,8.172l42.503,81.856c0.067,0.129,0.198,0.202,0.333,0.202c0.058,0,0.117-0.014,0.172-0.042
		c0.184-0.096,0.255-0.322,0.16-0.506l-42.189-81.25l8.377,2.226l55.492,79.061c0.073,0.104,0.189,0.159,0.307,0.159
		c0.075,0,0.15-0.022,0.215-0.068c0.17-0.118,0.21-0.353,0.092-0.522l-54.979-78.33l84.746,22.517
		c-0.033,0.204-0.063,0.409-0.063,0.622c0,2.025,1.567,3.665,3.551,3.822l1.033,51.593c0.004,0.207,0.155,0.372,0.382,0.367
		c0.207-0.004,0.372-0.176,0.368-0.383l-1.033-51.593c0.854-0.1,1.623-0.466,2.212-1.031l34.573,29.673l-10.904,22.796
		c-0.089,0.188-0.01,0.411,0.177,0.5c0.052,0.025,0.107,0.037,0.161,0.037c0.14,0,0.274-0.078,0.339-0.213l10.817-22.614
		l26.49,22.736c0.071,0.062,0.158,0.091,0.244,0.091c0.105,0,0.21-0.044,0.285-0.131c0.135-0.157,0.117-0.394-0.041-0.528
		l-26.644-22.868l24.605-51.437L1067,740.194c0.07,0.116,0.194,0.181,0.321,0.181c0.066,0,0.133-0.018,0.194-0.055
		c0.177-0.107,0.233-0.338,0.126-0.515l-45.64-75.199l7.329-15.321l66.282,72.913l3.531,17.873c0.035,0.179,0.192,0.303,0.367,0.303
		c0.024,0,0.049-0.002,0.073-0.007c0.203-0.04,0.335-0.237,0.295-0.44l-3.29-16.655l15.435,16.979
		c0.139,0.155,0.376,0.166,0.53,0.025c0.153-0.139,0.165-0.376,0.025-0.529l-16.271-17.898l-7.394-37.434
		c0.269-0.08,0.523-0.186,0.763-0.32l39.719,56.121c0.12,0.169,0.353,0.21,0.523,0.089c0.169-0.119,0.209-0.354,0.089-0.522
		l-39.7-56.089l-0.016-0.022c0.311-0.262,0.581-0.566,0.796-0.914l51.052,23.821l25.04,33.644c0.074,0.1,0.187,0.151,0.301,0.151
		c0.078,0,0.156-0.024,0.224-0.074c0.166-0.124,0.2-0.358,0.077-0.524l-24.21-32.529l70.921,33.092
		c0.19,0.091,0.411,0.007,0.499-0.182C1215.077,739.971,1214.996,739.748,1214.809,739.66z M1085.038,678.087l-50.099-40.528
		l20.449-42.748l0.014-0.03c0.411,0.15,0.849,0.244,1.311,0.244c0.311,0,0.608-0.047,0.898-0.116l28.565,82.324l0.01,0.03
		C1085.754,677.467,1085.364,677.745,1085.038,678.087z M1054.208,594.077c0.162,0.14,0.331,0.267,0.515,0.379l-20.385,42.617
		l-13.621-11.019L1054.208,594.077z M1034.005,637.769l-4.873,10.187l-14.569-16.026l5.606-5.353L1034.005,637.769z
		 M1014.059,631.373l-33.45-36.801l38.972,31.528L1014.059,631.373z M493.945,695.58c-0.758,0-1.461,0.227-2.057,0.605
		l-16.605-20.828l72.442-78.423l0.016-0.017c0.058,0.044,0.107,0.096,0.168,0.137l-53.248,98.597
		C494.428,695.608,494.19,695.58,493.945,695.58z M321.29,734.401l-86.417-54.607c0.464-0.636,0.747-1.414,0.747-2.261
		c0-0.106-0.023-0.206-0.031-0.31l140.819-53.432L321.29,734.401z M163.035,175l85.814,116.997L196.724,404.12l-34.694-228.677
		l-0.004-0.025C162.387,175.327,162.724,175.184,163.035,175z M249.355,292.687l5.199,7.088L207.69,469.412
		c-0.013,0.024-0.024,0.051-0.032,0.078l-0.002,0.007c-0.251-0.052-0.512-0.079-0.778-0.079c-0.083,0-0.161,0.019-0.243,0.024
		l-0.004-0.029l-9.702-63.949L249.355,292.687z M757.177,549.663c0.118,0.649,0.404,1.233,0.803,1.725l-39.823,39.346
		l-79.637-30.316c0.083-0.305,0.14-0.62,0.145-0.95l118.495-9.804L757.177,549.663z M698.536,614.094
		c-0.066-0.793-0.367-1.512-0.841-2.096l20.643-20.393l10.29,3.917c-0.087,0.322-0.149,0.655-0.149,1.005
		c0,2.128,1.725,3.852,3.852,3.852c1.749,0,3.208-1.173,3.679-2.769l98.16,18.733l-135.593-2.248L698.536,614.094z M637.886,561.717
		c0.141-0.187,0.263-0.386,0.368-0.597l79.317,30.194l-20.403,20.151c-0.668-0.556-1.515-0.904-2.452-0.904
		c-0.985,0-1.875,0.381-2.556,0.99L637.886,561.717z M672.561,635.309l-118.74-40.565l-0.021-0.007
		c0.066-0.283,0.11-0.575,0.11-0.879c0-0.38-0.072-0.74-0.174-1.086l77.691-31.577c0.646,1.223,1.915,2.065,3.393,2.065
		c0.52,0,1.015-0.106,1.468-0.293l37.641,70.725C673.333,634.09,672.86,634.651,672.561,635.309z M377.932,622.4l23.23-46.623
		c0.427,0.163,0.885,0.262,1.369,0.262c0.495,0,0.964-0.102,1.399-0.271l14.644,28.772c-1.024,0.666-1.705,1.803-1.747,3.106
		L377.932,622.4z M155.053,500.914l48.818-25.263c0.706,0.89,1.783,1.471,3.007,1.471c1.246,0,2.342-0.601,3.046-1.519
		l159.783,80.473l-5.678,5.009L155.29,503.009l-0.024-0.007c0.038-0.216,0.067-0.435,0.067-0.662
		C155.333,501.835,155.23,501.355,155.053,500.914z M360.758,449.99l0.029-0.005c0.427,1.663,1.923,2.896,3.718,2.896
		c0.452,0,0.879-0.092,1.281-0.235l34.014,72.313l0.012,0.025c-1.125,0.672-1.885,1.89-1.885,3.296c0,0.842,0.278,1.615,0.736,2.249
		l-28.352,25.013l-159.99-80.577c0.229-0.464,0.367-0.976,0.392-1.522L360.758,449.99z M370.428,556.44l28.511,14.362l-34.049-9.476
		L370.428,556.44z M367.289,451.681l67.852,52.962l-30.414,21.138l-0.025,0.017c-0.707-0.831-1.747-1.37-2.923-1.37
		c-0.453,0-0.882,0.092-1.285,0.236l-34.014-72.315l-0.011-0.023C366.771,452.147,367.048,451.934,367.289,451.681z
		 M483.183,517.801l-10.72,15.023l-16.797-13.111l11.285-11.258L483.183,517.801z M467.501,507.906l19.509-19.461l5.741,15.948
		l-9.13,12.794L467.501,507.906z M546.719,591.97l-87.827-38.837l13.726-19.236l74.181,57.889l0.014,0.011
		C546.778,591.852,546.752,591.913,546.719,591.97z M472.026,533.435l-13.834,19.389l-24.745-10.946l21.684-21.631L472.026,533.435z
		 M432.71,541.552l-27.289-12.071c0.125-0.38,0.21-0.778,0.21-1.2c0-0.682-0.193-1.314-0.504-1.87l30.629-21.288l18.777,14.657
		L432.71,541.552z M404.969,569.227c-0.59-0.487-1.322-0.796-2.13-0.861l-0.614-36.243l-0.001-0.035
		c0.02-0.002,0.04-0.003,0.06-0.006l7.551,32.29L404.969,569.227z M403.014,531.912c0.9-0.307,1.642-0.93,2.104-1.745l27.022,11.953
		l-21.68,21.629L403.014,531.912z M399.16,531.091c0.616,0.574,1.419,0.938,2.31,1.01l0.619,36.278
		c-1.183,0.137-2.2,0.795-2.807,1.755l-28.249-14.227L399.16,531.091z M406.257,573.116l5.823,0.855l6.99,29.892l-14.472-28.436
		C405.416,574.905,406.016,574.084,406.257,573.116z M406.364,572.377c0.003-0.064,0.019-0.125,0.019-0.19
		c0-0.926-0.34-1.764-0.885-2.429l4.538-4.527l1.861,7.958L406.364,572.377z M410.661,564.608l22.216-22.162l24.87,11.001
		l-17.102,23.964l-27.951-4.105L410.661,564.608z M458.448,553.757l87.94,38.886l0.028,0.013c-0.03,0.092-0.063,0.183-0.086,0.278
		L441.48,577.534L458.448,553.757z M547.274,591.207l-74.22-57.921l10.781-15.109l14.312,8.24c-0.22,0.485-0.35,1.02-0.35,1.587
		c0,2.128,1.725,3.852,3.852,3.852c0.72,0,1.386-0.21,1.962-0.554l43.882,59.701C547.419,591.07,547.343,591.134,547.274,591.207z
		 M498.523,525.767l-14.25-8.204l8.786-12.313l6.943,19.284C499.411,524.815,498.902,525.239,498.523,525.767z M487.596,487.86
		l58.819-58.676L493.28,503.65L487.596,487.86z M487.314,487.077l-5.122-14.227l63.931-44.433L487.314,487.077z M486.728,487.662
		l-19.903,19.856l-18.877-10.868l33.606-23.357L486.728,487.662z M466.275,508.066l-11.207,11.18l-18.667-14.571l10.867-7.553
		L466.275,508.066z M435.785,504.195l-66.829-52.166l77.597,44.682L435.785,504.195z M364.22,561.917l34.5,9.604l0.026,0.007
		c-0.037,0.215-0.066,0.433-0.066,0.658c0,0.613,0.156,1.184,0.411,1.698L235.37,675.594L364.22,561.917z M235.441,676.433
		l164.017-101.895l0.028-0.017c0.279,0.364,0.615,0.677,1.005,0.922L376.9,622.8l-141.449,53.666
		C235.448,676.455,235.444,676.444,235.441,676.433z M420.667,603.915c-0.272,0-0.538,0.03-0.794,0.084l-6.995-29.91l27.28,4.007
		l-18.524,25.957C421.323,603.972,421.003,603.915,420.667,603.915z M422.362,604.324l18.63-26.106l105.213,15.453l0.019,0.003
		c-0.003,0.062-0.019,0.121-0.019,0.184c0,0.003,0.001,0.005,0.001,0.008l-122.124,12.155
		C423.705,605.285,423.104,604.69,422.362,604.324z M732.331,592.675c-1.512-0.001-2.807,0.878-3.437,2.146l-9.97-3.795
		l39.583-39.105c0.053,0.044,0.104,0.091,0.16,0.132l-24.685,41.007C733.48,592.82,732.924,592.675,732.331,592.675z
		 M549.665,590.012l0,0.034c-0.569,0.058-1.099,0.234-1.567,0.513l-43.883-59.701c0.483-0.435,0.849-0.987,1.064-1.616
		l44.171,10.419L549.665,590.012z M505.45,528.511c0.022-0.167,0.051-0.333,0.051-0.507c0-2.127-1.725-3.852-3.852-3.852
		c-0.326,0-0.637,0.052-0.94,0.129l-7.12-19.773l53.826-75.43l0.015-0.021c0.466,0.268,0.989,0.436,1.551,0.489l0.466,109.338
		L505.45,528.511z M545.991,427.6l-64.06,44.523l-12.92-35.889l76.578-9.654C545.671,426.945,545.814,427.283,545.991,427.6z
		 M481.293,472.566l-34.06,23.672l-79.207-45.602l-0.023-0.014c0.222-0.487,0.353-1.023,0.353-1.592c0-0.036-0.01-0.07-0.011-0.106
		l99.903-12.595L481.293,472.566z M360.653,449.03c0,0.075,0.018,0.145,0.022,0.219l-150.004,23.439
		c-0.204-1.339-1.084-2.455-2.293-2.967c0.004-0.011,0.01-0.021,0.013-0.032l46.726-169.149l106.811,145.611l0.015,0.021
		C361.157,446.878,360.653,447.891,360.653,449.03z M254.808,298.859l-5.096-6.948l17.284-37.166L254.808,298.859z M205.889,469.526
		l0.005,0.034c-1.179,0.312-2.136,1.158-2.586,2.274l-31.444-12.456l24.491-52.683L205.889,469.526z M203.098,472.557
		c-0.043,0.232-0.072,0.469-0.072,0.713c0,0.632,0.167,1.22,0.437,1.747l-48.755,25.23c-0.324-0.499-0.765-0.909-1.278-1.212
		l18.119-38.975L203.098,472.557z M152.76,498.692l-0.012,0.027c-0.25-0.088-0.511-0.147-0.782-0.181l1.327-45.709l17.555,6.954
		L152.76,498.692z M155.065,503.727l208.293,57.951L234.759,675.133c-0.706-0.879-1.777-1.453-2.992-1.453
		c-0.545,0-1.062,0.116-1.532,0.32l-76.814-168.316l-0.012-0.027C154.159,505.22,154.748,504.546,155.065,503.727z M377.439,623.39
		l39.443-14.962c0.083,0.481,0.258,0.926,0.502,1.328l-93.889,121.903L377.439,623.39z M424.365,606.746l121.917-12.133
		c0.136,0.685,0.464,1.296,0.911,1.798l-72.381,78.354l-51.329-64.385c0.638-0.687,1.037-1.601,1.037-2.613
		C424.519,607.411,424.455,607.073,424.365,606.746z M553.558,595.449l118.741,40.567l0.02,0.007
		c-0.066,0.282-0.109,0.573-0.109,0.875c0,0.301,0.043,0.591,0.108,0.872l-45.904,15.538l-73.093-57.374l-0.019-0.015
		C553.398,595.77,553.483,595.612,553.558,595.449z M678.221,633.708c-0.616-0.418-1.359-0.662-2.159-0.662
		c-0.522,0-1.018,0.106-1.472,0.294l-37.64-70.725c0.153-0.102,0.291-0.224,0.428-0.346l54.248,49.817l0.022,0.02
		c-0.486,0.645-0.784,1.438-0.784,2.307c0,1.058,0.427,2.014,1.117,2.71L678.221,633.708z M698.524,614.848l136.13,2.256
		l0.036,0.001c0.056,0.678,0.269,1.312,0.631,1.844l-29.594,24.568l-107.221-28.489
		C698.516,614.969,698.517,614.908,698.524,614.848z M842.33,616.465l119.548-22.116l11.441-2.116
		c0.361,1.256,1.335,2.238,2.584,2.613l-16.692,85.893l-0.007,0.038c-0.118-0.011-0.231-0.035-0.352-0.035
		c-1.305-0.001-2.454,0.652-3.151,1.645l-113.649-64.033l-0.021-0.012c0.21-0.475,0.331-0.998,0.331-1.551
		C842.363,616.679,842.339,616.574,842.33,616.465z M961.353,681.684c-0.406-0.349-0.882-0.611-1.408-0.767l16.684-85.885
		l0.009-0.044c0.123,0.012,0.242,0.037,0.368,0.037c0.597,0,1.155-0.147,1.659-0.389l27.1,44.656L961.353,681.684z M979.332,594.291
		l34.184,37.601l-7.198,6.871L979.332,594.291z M835.373,614.542l0.013,0.011c-0.248,0.346-0.43,0.736-0.553,1.154l-98.685-18.833
		c0.01-0.116,0.035-0.228,0.035-0.346c0-1.265-0.618-2.378-1.56-3.08l24.668-40.984l0.014-0.024c0.503,0.241,1.06,0.387,1.655,0.387
		c1.022,0,1.945-0.405,2.634-1.054L835.373,614.542z M630.994,558.896l0.025,0.006c-0.022,0.167-0.051,0.333-0.051,0.507
		c0,0.382,0.073,0.743,0.176,1.091l-77.69,31.577c-0.591-1.123-1.711-1.909-3.036-2.034l-0.214-50.203L630.994,558.896z
		 M545.911,424.01c-0.262,0.52-0.423,1.099-0.423,1.721c0,0.036,0.01,0.069,0.011,0.105l-76.748,9.675l-27.079-75.218l-0.011-0.03
		c0.546-0.26,1.015-0.644,1.382-1.117L545.911,424.01z M437.86,360.007L437.86,360.007l0.01-0.012
		c0.613,0.411,1.349,0.651,2.142,0.651c0.327,0,0.639-0.053,0.942-0.13l27.035,75.089l-99.706,12.571l-0.027,0.003
		c-0.164-0.726-0.527-1.376-1.036-1.882L437.86,360.007z M362.386,445.515L255.37,299.625l12.537-45.364
		c0.251,0.052,0.512,0.079,0.778,0.079c0.428,0,0.832-0.086,1.216-0.215L362.386,445.515z M265.318,248.572l0.031,0.023
		c-0.319,0.561-0.516,1.201-0.516,1.893c0,1.372,0.723,2.569,1.803,3.251l-17.43,37.482l-85.553-116.642l-0.015-0.02
		c0.106-0.094,0.204-0.193,0.299-0.299L265.318,248.572z M160.645,167.856l0.001,0.033c-0.707,0.08-1.352,0.344-1.89,0.754
		l-58.388-62.916l56.398-79.371l0.035-0.05c0.483,0.218,1.015,0.346,1.58,0.346c0.045,0,0.087-0.012,0.132-0.013L160.645,167.856z
		 M65.511,68.169l89.686-43.203c0.256,0.376,0.581,0.698,0.951,0.962l-56.302,79.237L65.511,68.169z M74.036,142.784l25.889-36.434
		l58.27,62.785l0.015,0.016c-0.265,0.298-0.491,0.63-0.654,1L74.036,142.784z M161.336,175.884l34.817,229.468l-24.987,53.75
		l-17.848-7.07L161.336,175.884z M35.131,497.004l112.517,5.523c0.049,0.997,0.464,1.897,1.13,2.554L33.675,647.208L35.131,497.004z
		 M7.699,734.349l142.07-228.54l0.016-0.026c0.157,0.078,0.319,0.141,0.487,0.197l-46.135,204.067L7.699,734.349z M104.953,709.841
		l46.043-203.668l0.007-0.029c0.159,0.02,0.315,0.048,0.479,0.048c0.438,0,0.851-0.089,1.243-0.223l76.834,168.347l0.022,0.049
		c-1.005,0.695-1.666,1.853-1.666,3.168c0,0.446,0.091,0.867,0.23,1.265L104.953,709.841z M322.357,734.363l95.493-123.985
		c0.704,0.759,1.701,1.241,2.817,1.241c0.844,0,1.619-0.279,2.253-0.74l51.377,64.443l-31.016,33.576L322.357,734.363z
		 M474.769,675.914l16.528,20.731c-0.646,0.614-1.066,1.45-1.164,2.385l-45.585,9.6L474.769,675.914z M497.12,697.074l-0.117,0.04
		c-0.415-0.546-0.963-0.983-1.607-1.246l53.172-98.457c0.458,0.192,0.961,0.299,1.489,0.299c0.167,0,0.325-0.028,0.486-0.049
		l17.258,75.488L497.12,697.074z M568.517,672.907l-17.232-75.38l-0.007-0.033c0.597-0.201,1.131-0.532,1.558-0.978l72.722,57.082
		L568.517,672.907z M627.116,653.859l45.414-15.374l0.026-0.009c0.604,1.338,1.943,2.273,3.506,2.273
		c2.128,0,3.852-1.725,3.852-3.852c0-1.057-0.427-2.014-1.117-2.71l13.76-16.585c0.616,0.418,1.359,0.662,2.159,0.662
		c0.089,0,0.173-0.02,0.26-0.026l16.557,99.436c-0.689,0.185-1.303,0.547-1.783,1.048L627.116,653.859z M715.238,718.644
		c-0.696-0.689-1.652-1.116-2.709-1.116c-0.088,0-0.169,0.02-0.255,0.026l-16.553-99.405l-0.005-0.031
		c0.115-0.031,0.229-0.064,0.339-0.105l40.37,83.037L715.238,718.644z M737.019,700.556l-40.271-82.84l-0.016-0.033
		c0.723-0.447,1.283-1.122,1.584-1.929l106.705,28.352L737.019,700.556z M806.618,643.754l29.184-24.228
		c0.362,0.359,0.796,0.641,1.277,0.834l-8.517,29.224L806.618,643.754z M829.286,649.777l8.512-29.207
		c0.232,0.043,0.469,0.072,0.713,0.072c0.507,0,0.988-0.104,1.431-0.281l19.424,37.409L829.286,649.777z M860.347,658.03
		l-18.906-36.41l27.08,38.582L860.347,658.03z M869.649,660.501l-28.639-40.802c0.243-0.209,0.467-0.439,0.651-0.703l113.645,64.031
		l0.025,0.014c-0.029,0.067-0.05,0.137-0.076,0.206L869.649,660.501z M996.421,716.342l-34.419-29.541
		c0.44-0.626,0.703-1.385,0.703-2.208c0-0.898-0.32-1.713-0.834-2.368l44.292-42.278l14.987,24.696L996.421,716.342z
		 M1021.534,663.839l-14.818-24.42l7.305-6.973l14.762,16.239L1021.534,663.839z M1095.33,720.776l-65.652-72.22l4.927-10.301
		l49.948,40.407l0.021,0.017c-0.38,0.597-0.607,1.301-0.607,2.061c0,2.127,1.725,3.852,3.852,3.852c0.122,0,0.237-0.025,0.356-0.036
		L1095.33,720.776z M1091.438,682.09l-0.02-0.009c0.156-0.419,0.254-0.867,0.254-1.341c0-2.127-1.725-3.852-3.852-3.852
		c-0.32,0-0.627,0.051-0.925,0.124l-28.561-82.315l-0.012-0.034c0.128-0.059,0.251-0.129,0.371-0.201l82.499,110.845
		L1091.438,682.09z"/>
	<path class="st0" d="M3199.804,408.961l-148.2,91.05l-0.023,0.014c-0.653-0.861-1.653-1.432-2.797-1.51l-1.335-45.981
		l152.689-60.485c0.193-0.076,0.287-0.294,0.211-0.486c-0.077-0.192-0.294-0.285-0.486-0.211l-152.437,60.385l-8.021-276.207
		l-0.001-0.028c0.903-0.115,1.707-0.529,2.303-1.156l158.062,123.001c0.162,0.127,0.398,0.099,0.526-0.065
		c0.127-0.164,0.098-0.399-0.065-0.526l-158.05-122.99l-0.013-0.01c0.378-0.596,0.605-1.298,0.605-2.056
		c0-0.287-0.037-0.565-0.096-0.835l83.743-27.439l73.274,103.123c0.073,0.103,0.188,0.158,0.306,0.158
		c0.075,0,0.151-0.022,0.217-0.069c0.169-0.12,0.209-0.354,0.089-0.523l-73.141-102.933l72.952-23.904
		c0.196-0.064,0.304-0.276,0.239-0.473c-0.064-0.197-0.275-0.305-0.474-0.24l-73.173,23.976l-26.112-36.749l34.598-37.281
		l64.641,31.138c0.053,0.025,0.108,0.037,0.163,0.037c0.14,0,0.273-0.078,0.338-0.212c0.09-0.187,0.012-0.411-0.175-0.5
		l-64.433-31.038l64.544-69.549c0.142-0.151,0.133-0.389-0.02-0.53c-0.151-0.141-0.389-0.132-0.529,0.02l-64.704,69.718
		l-89.857-43.285c0.197-0.463,0.307-0.972,0.307-1.507c0-0.193-0.03-0.377-0.057-0.562l95.695-21.321
		c0.203-0.045,0.33-0.246,0.285-0.448c-0.046-0.202-0.238-0.33-0.448-0.285l-95.713,21.326c-0.532-1.489-1.942-2.561-3.614-2.561
		c-2.127,0-3.852,1.725-3.852,3.852c0,1.823,1.27,3.342,2.971,3.741l-2.133,141.302l0,0.033c-1.977,0.163-3.537,1.801-3.537,3.82
		c0,0.718,0.209,1.381,0.551,1.956l-101.381,74.313l-0.02,0.014c-0.707-0.818-1.738-1.346-2.904-1.346
		c-2.127,0-3.852,1.725-3.852,3.852c0,1.432,0.791,2.667,1.951,3.331l-92.582,191.588l-0.01,0.02
		c-0.415-0.153-0.858-0.249-1.327-0.249c-0.79,0-1.524,0.24-2.135,0.648l-70.651-86.305c0.698-0.697,1.13-1.661,1.13-2.725
		c0-2.128-1.725-3.853-3.853-3.852c-2.127,0-3.852,1.724-3.852,3.852c0,0.62,0.16,1.198,0.421,1.717l-102.867,64.864
		c-0.705-0.905-1.793-1.497-3.03-1.497c-2.127,0-3.852,1.724-3.852,3.852c0,1.993,1.521,3.615,3.462,3.813l-0.467,109.523
		l-80.968,19.099l-0.023,0.005c-0.517-1.517-1.938-2.615-3.632-2.615c-1.892,0-3.458,1.366-3.783,3.165l-118.495-9.805l-0.014-0.001
		c-0.032-2.1-1.74-3.793-3.847-3.793c-2.127,0-3.852,1.724-3.852,3.852c0,0.835,0.272,1.602,0.724,2.233l-71.779,62.77l-0.013,0.011
		c-0.689-0.647-1.611-1.051-2.631-1.051c-1.756,0-3.221,1.182-3.685,2.789l-130.99-24.233c0.009-0.108,0.032-0.211,0.032-0.321
		c0-2.127-1.725-3.852-3.852-3.852s-3.852,1.725-3.852,3.852c0,0.783,0.237,1.51,0.639,2.118l-39.91,32.287l-33.562-32.043
		c0.512-0.654,0.829-1.467,0.829-2.362c0-2.127-1.725-3.852-3.852-3.852s-3.852,1.725-3.852,3.852c0,1.13,0.496,2.137,1.271,2.841
		l-83.333,111.966l-72.181,33.68c-0.188,0.088-0.27,0.311-0.182,0.498c0.088,0.189,0.314,0.271,0.498,0.182l70.925-33.097
		l-24.214,32.533c-0.124,0.166-0.089,0.4,0.077,0.524c0.067,0.05,0.146,0.074,0.224,0.074c0.114,0,0.228-0.052,0.301-0.151
		l25.044-33.649l51.014-23.805l0.033-0.016c0.215,0.347,0.484,0.652,0.794,0.914l-39.711,56.115c-0.12,0.169-0.08,0.403,0.089,0.522
		c0.169,0.12,0.403,0.081,0.522-0.089l39.701-56.091l0.021-0.029c0.24,0.133,0.493,0.239,0.76,0.318l-7.395,37.435l-16.27,17.898
		c-0.14,0.153-0.128,0.391,0.025,0.529c0.152,0.141,0.39,0.13,0.529-0.025l15.434-16.978l-3.29,16.654
		c-0.04,0.203,0.093,0.4,0.296,0.44c0.024,0.005,0.049,0.007,0.072,0.007c0.176,0,0.333-0.124,0.368-0.303l3.53-17.873
		l66.284-72.914l7.326,15.316l-45.639,75.205c-0.107,0.177-0.052,0.407,0.126,0.515c0.061,0.037,0.128,0.055,0.194,0.055
		c0.126,0,0.25-0.064,0.32-0.181l45.385-74.785l24.605,51.439l-26.645,22.868c-0.157,0.135-0.175,0.371-0.04,0.528
		c0.074,0.087,0.179,0.131,0.284,0.131c0.087,0,0.174-0.029,0.244-0.091l26.491-22.736l10.817,22.614
		c0.064,0.135,0.198,0.213,0.338,0.213c0.055,0,0.109-0.012,0.162-0.037c0.187-0.089,0.266-0.312,0.176-0.5l-10.904-22.795
		l34.574-29.673c0.589,0.564,1.358,0.93,2.211,1.031l-1.034,51.593c-0.004,0.207,0.16,0.379,0.367,0.383c0.003,0,0.006,0,0.008,0
		c0.204,0,0.371-0.163,0.375-0.367l1.033-51.593c1.984-0.156,3.552-1.797,3.552-3.822c0-0.213-0.03-0.418-0.063-0.622l84.745-22.517
		l-54.979,78.33c-0.119,0.17-0.078,0.404,0.091,0.522c0.066,0.046,0.142,0.068,0.216,0.068c0.118,0,0.234-0.056,0.307-0.159
		l55.492-79.061l8.377-2.226l-42.188,81.249c-0.096,0.184-0.023,0.41,0.16,0.506c0.056,0.028,0.114,0.042,0.173,0.042
		c0.135,0,0.266-0.073,0.333-0.202l42.503-81.855l30.758-8.172l26.116,89.608c0.048,0.164,0.197,0.271,0.36,0.271
		c0.034,0,0.07-0.005,0.104-0.015c0.199-0.059,0.313-0.267,0.256-0.465l-26.112-89.592l22.443-5.963l68.553,56.909l-18.762,38.586
		c-0.091,0.187-0.014,0.411,0.173,0.501c0.053,0.026,0.108,0.038,0.164,0.038c0.139,0,0.272-0.077,0.337-0.211l18.682-38.421
		l21.044,17.477c-0.418,0.616-0.664,1.359-0.664,2.16c0,2.127,1.724,3.852,3.852,3.852c0.721,0,1.388-0.211,1.965-0.556
		l11.472,15.546c0.123,0.167,0.357,0.202,0.524,0.079s0.202-0.357,0.079-0.524l-11.472-15.546c0.782-0.705,1.283-1.716,1.283-2.852
		c0-0.763-0.229-1.47-0.611-2.068l83.017-65.163l57.587,19.492l-15.151,66.275c-0.047,0.202,0.08,0.403,0.281,0.449
		c0.028,0.007,0.057,0.01,0.084,0.01c0.171,0,0.326-0.117,0.365-0.291l15.135-66.202l70.566,23.885
		c-0.244,0.505-0.392,1.065-0.392,1.664c0,1.141,0.505,2.154,1.293,2.86l-27.38,37.488c-0.122,0.167-0.086,0.401,0.082,0.523
		c0.166,0.121,0.401,0.086,0.523-0.082l27.36-37.469l0.015-0.02c0.575,0.342,1.24,0.552,1.958,0.552
		c1.612,0,2.989-0.992,3.563-2.398l69.295,39.44c0.059,0.033,0.122,0.049,0.186,0.049c0.13,0,0.257-0.068,0.326-0.189
		c0.103-0.18,0.039-0.409-0.141-0.512l-69.449-39.527c0.021-0.113,0.024-0.232,0.035-0.348l46.458,9.784l28.335,30.673
		c0.074,0.08,0.175,0.12,0.275,0.12c0.091,0,0.183-0.033,0.255-0.1c0.151-0.141,0.161-0.378,0.021-0.53l-27.616-29.896
		l120.661,25.41l1.348,4.841c0.046,0.166,0.197,0.274,0.361,0.274c0.033,0,0.067-0.004,0.101-0.014
		c0.199-0.056,0.316-0.263,0.261-0.462l-1.334-4.792l86.565-54.701l0.074-0.047c0.38,0.349,0.83,0.618,1.327,0.793l-17.87,58.739
		c-0.061,0.198,0.051,0.408,0.249,0.468c0.036,0.012,0.073,0.017,0.109,0.017c0.161,0,0.31-0.104,0.358-0.266l17.883-58.78
		c0.178,0.025,0.356,0.055,0.541,0.055c0.966,0,1.837-0.368,2.514-0.955l88.273,59.881c0.064,0.044,0.138,0.064,0.211,0.064
		c0.12,0,0.238-0.058,0.311-0.164c0.116-0.172,0.071-0.405-0.1-0.521l-88.172-59.812c0.096-0.124,0.184-0.253,0.265-0.388
		l123.698,31.172l6.652,29.422c0.04,0.174,0.194,0.292,0.366,0.292c0.027,0,0.055-0.003,0.083-0.009
		c0.202-0.046,0.328-0.247,0.283-0.449l-6.568-29.051l96.97,24.436c0.148,0.039,0.305-0.019,0.395-0.143
		c0.09-0.123,0.097-0.289,0.016-0.419l-141.427-227.505l114.417,141.281c0.1,0.123,0.266,0.174,0.418,0.116
		c0.15-0.054,0.25-0.196,0.248-0.356l-1.47-151.67c-0.001-0.102-0.044-0.199-0.118-0.269c-0.074-0.07-0.185-0.105-0.275-0.103
		l-112.88,5.539l-0.028,0.001c-0.059-0.396-0.175-0.769-0.344-1.116l148.226-91.06c0.177-0.108,0.231-0.339,0.123-0.516
		C3200.212,408.908,3199.98,408.852,3199.804,408.961z M2878.711,734.401L2823.6,623.793l140.716,53.388l0.096,0.037
		c-0.009,0.106-0.032,0.207-0.032,0.315c0,0.846,0.281,1.622,0.744,2.257L2878.711,734.401z M2706.056,695.58
		c-0.245,0-0.484,0.028-0.716,0.072l-53.249-98.597c0.059-0.04,0.108-0.092,0.165-0.134l72.46,78.439l-16.603,20.826
		C2707.516,695.807,2706.814,695.58,2706.056,695.58z M2394.27,643.518l-29.591-24.567c0.362-0.534,0.576-1.169,0.632-1.848
		l136.125-2.257l0.04-0.001c0.007,0.061,0.009,0.124,0.019,0.184L2394.27,643.518z M2244.3,682.388
		c-0.697-0.994-1.846-1.647-3.152-1.647c-0.122,0-0.237,0.025-0.356,0.036l-16.683-85.889l-0.008-0.043
		c1.248-0.376,2.22-1.358,2.581-2.612l10.001,1.85l120.988,22.382c-0.009,0.109-0.033,0.214-0.033,0.325
		c0,0.554,0.122,1.078,0.332,1.553l-113.643,64.03L2244.3,682.388z M2220.678,594.273l0.003-0.004l-27.001,44.493l-7.197-6.87
		L2220.678,594.273z M2221.336,594.635c0.504,0.242,1.062,0.389,1.659,0.389c0.125,0,0.243-0.025,0.365-0.037l16.691,85.893
		l0.007,0.035c-0.527,0.156-1.004,0.418-1.41,0.768l-44.413-42.393L2221.336,594.635z M2436.408,551.773
		c0.689,0.648,1.611,1.053,2.632,1.053c0.594,0,1.15-0.145,1.652-0.385l24.684,41.006c-0.942,0.702-1.56,1.815-1.56,3.08
		c0,0.119,0.024,0.231,0.035,0.347l-98.682,18.833c-0.123-0.417-0.305-0.807-0.552-1.152l71.77-62.763L2436.408,551.773z
		 M3036.968,175.001c0.312,0.185,0.648,0.327,1.008,0.418l-34.701,228.705l-52.123-112.124l85.801-116.979L3036.968,175.001z
		 M3003.072,405.462l-9.703,63.951l-0.004,0.029c-0.082-0.005-0.16-0.024-0.243-0.024c-0.267,0-0.527,0.027-0.778,0.079
		l-0.002-0.007c-0.008-0.027-0.019-0.054-0.032-0.079l-46.86-169.636l5.196-7.084L3003.072,405.462z M2964.549,676.467
		l-141.441-53.663l-23.598-47.361c0.389-0.244,0.725-0.557,1.004-0.92l163.959,101.855l0.087,0.054
		C2964.556,676.444,2964.552,676.456,2964.549,676.467z M2783.173,607.646c-0.041-1.303-0.722-2.44-1.746-3.106l14.643-28.773
		c0.435,0.17,0.905,0.272,1.4,0.272c0.483,0,0.941-0.099,1.368-0.262l23.23,46.623L2783.173,607.646z M2527.44,635.312
		c-0.299-0.659-0.772-1.222-1.369-1.62l37.64-70.725c0.453,0.187,0.947,0.293,1.468,0.293c1.479,0,2.749-0.843,3.395-2.065
		l77.691,31.577c-0.102,0.347-0.174,0.706-0.174,1.086c0,0.305,0.044,0.598,0.111,0.883l-118.742,40.565L2527.44,635.312z
		 M2698.351,531.856c2.127,0,3.852-1.724,3.852-3.852c0-0.568-0.13-1.102-0.35-1.588l14.312-8.24l10.782,15.11l-74.208,57.909
		l-0.013,0.01c-0.069-0.072-0.144-0.136-0.219-0.203l43.881-59.701C2696.964,531.646,2697.631,531.856,2698.351,531.856z
		 M2718.444,473.294l33.605,23.356l-18.878,10.869l-19.901-19.853L2718.444,473.294z M2712.684,487.081l-58.808-58.666
		l63.931,44.436L2712.684,487.081z M2989.287,473.44c0.024,0.547,0.162,1.059,0.391,1.524l-159.992,80.578l-28.35-25.011
		c0.459-0.634,0.737-1.407,0.737-2.25c0-1.407-0.762-2.626-1.889-3.298l34.014-72.313l0.011-0.024
		c0.404,0.144,0.832,0.236,1.285,0.236c1.794,0,3.288-1.232,3.717-2.892l150.009,23.44L2989.287,473.44z M2653.669,592.931
		c-0.023-0.094-0.055-0.183-0.085-0.274l87.968-38.9l16.967,23.774l-104.833,15.397L2653.669,592.931z M2653.187,591.798
		l74.195-57.901l13.726,19.236l-87.8,38.824l-0.028,0.012C2653.248,591.913,2653.222,591.853,2653.187,591.798z M2832.711,451.679
		c0.242,0.254,0.52,0.468,0.823,0.648l-34.012,72.312l-0.012,0.026c-0.404-0.144-0.833-0.237-1.287-0.237
		c-1.175,0-2.213,0.537-2.92,1.366l-30.439-21.156l67.827-52.944L2832.711,451.679z M2797.165,568.323l-0.001,0.042
		c-0.81,0.065-1.542,0.375-2.134,0.862l-4.867-4.855l7.551-32.292c0.021,0.003,0.043,0.004,0.064,0.006L2797.165,568.323z
		 M2796.985,531.912l-7.447,31.838l-21.681-21.628l27.025-11.954C2795.344,530.981,2796.086,531.605,2796.985,531.912z
		 M2794.873,526.412c-0.311,0.556-0.503,1.187-0.503,1.869c0,0.422,0.084,0.82,0.21,1.2l-27.292,12.072l-21.824-21.771
		l18.778-14.658L2794.873,526.412z M2766.554,541.878l-24.746,10.946l-13.834-19.389l16.897-13.189L2766.554,541.878z
		 M2742.252,553.447l24.871-11.002l22.214,22.162l-2.034,8.696l-27.951,4.105L2742.252,553.447z M2789.963,565.232l4.539,4.528
		c-0.544,0.664-0.884,1.502-0.884,2.428c0,0.064,0.016,0.123,0.019,0.186l-5.533,0.813L2789.963,565.232z M2793.743,573.113
		c0.24,0.969,0.841,1.791,1.659,2.314l-14.472,28.436l6.991-29.895L2793.743,573.113z M2801.055,570.804l28.518-14.362l5.541,4.888
		l-34.057,9.476C2801.056,570.805,2801.056,570.804,2801.055,570.804z M2800.719,570.134c-0.608-0.959-1.625-1.618-2.808-1.754
		l0.619-36.277c0.89-0.072,1.694-0.436,2.31-1.01l28.125,24.813L2800.719,570.134z M2764.219,504.192l-10.768-7.484l77.578-44.665
		L2764.219,504.192z M2763.599,504.677l-18.669,14.572l-11.208-11.181l19.009-10.944L2763.599,504.677z M2732.5,507.905
		l-16.121,9.282l-9.13-12.794l5.742-15.951L2732.5,507.905z M2733.051,508.454l11.285,11.258l-16.798,13.112l-10.721-15.024
		L2733.051,508.454z M2653.776,593.676l105.23-15.462l18.633,26.109c-0.743,0.366-1.344,0.961-1.722,1.698l-122.124-12.155
		c0-0.003,0.001-0.005,0.001-0.008C2653.794,593.796,2653.779,593.738,2653.776,593.676z M2759.84,578.092l27.281-4.006
		l-6.996,29.91l0,0.003c-0.256-0.053-0.52-0.083-0.792-0.083c-0.336,0-0.656,0.056-0.967,0.137L2759.84,578.092z M2800.938,573.901
		l-0.027-0.017c0.254-0.514,0.41-1.085,0.41-1.698c0-0.227-0.029-0.446-0.067-0.662l34.524-9.608l128.839,113.668L2800.938,573.901z
		 M2830.294,556.078l159.724-80.443l0.059-0.03c0.704,0.916,1.8,1.517,3.044,1.517c1.224,0,2.302-0.581,3.008-1.471l48.817,25.263
		c-0.177,0.442-0.28,0.921-0.28,1.426c0,0.227,0.029,0.447,0.067,0.664l-208.759,58.086L2830.294,556.078z M3045.292,500.248
		l-48.754-25.23c0.27-0.527,0.437-1.115,0.437-1.747c0-0.244-0.028-0.482-0.072-0.713l31.55-12.498l18.107,38.949l0.012,0.025
		C3046.058,499.337,3045.617,499.747,3045.292,500.248z M2996.692,471.834c-0.45-1.118-1.409-1.964-2.59-2.275l9.539-62.872
		l24.495,52.69L2996.692,471.834z M2945.194,298.849l-12.188-44.102l17.281,37.161L2945.194,298.849z M2991.608,469.69
		c0.003,0.012,0.009,0.021,0.013,0.032c-1.21,0.512-2.09,1.63-2.293,2.97l-149.971-23.441l-0.031-0.005
		c0.004-0.073,0.022-0.142,0.022-0.215c0-1.138-0.503-2.15-1.288-2.855l106.821-145.623L2991.608,469.69z M2831.994,450.617
		l-79.224,45.618l-34.062-23.674l13.043-36.232l99.872,12.593l0.031,0.004c-0.001,0.035-0.01,0.068-0.01,0.104
		C2831.644,449.597,2831.774,450.132,2831.994,450.617z M2718.071,472.118l-64.036-44.506l-0.023-0.016
		c0.176-0.316,0.318-0.653,0.4-1.016l76.577,9.654L2718.071,472.118z M2712.405,487.857l-5.685,15.792l-53.164-74.501
		L2712.405,487.857z M2706.94,505.25l8.786,12.313l-14.25,8.204c-0.379-0.529-0.888-0.952-1.48-1.233L2706.94,505.25z
		 M2695.785,530.858l-43.883,59.701c-0.469-0.279-1-0.455-1.571-0.513l0.215-50.388l44.175-10.416
		C2694.935,529.87,2695.301,530.422,2695.785,530.858z M2562.113,561.717l-54.246,49.816l-0.023,0.021
		c-0.682-0.611-1.573-0.993-2.561-0.993c-0.937,0-1.784,0.348-2.452,0.904l-20.399-20.153l79.312-30.192
		C2561.851,561.331,2561.972,561.53,2562.113,561.717z M2502.305,611.999c-0.474,0.584-0.776,1.305-0.841,2.099l-135.652,2.249
		l98.177-18.736c0.47,1.596,1.93,2.769,3.678,2.769c2.128,0,3.853-1.724,3.853-3.852c0-0.35-0.062-0.682-0.149-1.004l10.287-3.916
		L2502.305,611.999z M2471.106,594.821c-0.631-1.268-1.926-2.147-3.438-2.146c-0.593,0-1.148,0.145-1.65,0.384l-24.667-40.983
		l-0.015-0.025c0.054-0.041,0.105-0.086,0.157-0.13l39.578,39.106L2471.106,594.821z M2508.349,612.102l54.273-49.833
		c0.137,0.122,0.274,0.244,0.428,0.346l-37.64,70.725c-0.454-0.188-0.95-0.294-1.472-0.294c-0.8,0-1.542,0.244-2.158,0.662
		l-13.76-16.584c0.69-0.696,1.117-1.653,1.117-2.71C2509.136,613.542,2508.836,612.747,2508.349,612.102z M2527.68,636.019
		l118.741-40.563l0.021-0.007c0.075,0.164,0.161,0.323,0.257,0.474l-73.106,57.386l-45.883-15.533l-0.026-0.009
		c0.064-0.28,0.106-0.568,0.106-0.868C2527.79,636.594,2527.746,636.302,2527.68,636.019z M2652.825,596.425l-0.016-0.017
		c0.446-0.501,0.772-1.111,0.908-1.795l121.916,12.133c-0.09,0.327-0.154,0.665-0.154,1.021c0,1.013,0.399,1.927,1.038,2.614
		l-51.329,64.383L2652.825,596.425z M2783.118,608.427l39.442,14.961l53.946,108.27l-93.89-121.903
		C2782.861,609.353,2783.035,608.908,2783.118,608.427z M2968.233,673.68c-1.215,0-2.285,0.574-2.991,1.453l-128.6-113.455
		l208.27-57.946l0.023-0.006c0.317,0.82,0.907,1.495,1.658,1.932l-76.832,168.341C2969.292,673.795,2968.776,673.68,2968.233,673.68
		z M3048.034,498.537c-0.272,0.035-0.533,0.094-0.785,0.182l-18.1-38.936l17.562-6.957L3048.034,498.537z M3046.688,452.029
		l-17.855,7.073l-24.988-53.753l34.821-229.492L3046.688,452.029z M3125.965,142.784l-83.521,27.367
		c-0.162-0.368-0.387-0.699-0.65-0.996l58.284-62.803L3125.965,142.784z M3134.487,68.168l-34.335,36.996l-56.301-79.234
		c0.37-0.265,0.696-0.588,0.952-0.964L3134.487,68.168z M3041.619,26.653c0.565,0,1.098-0.129,1.582-0.348l56.431,79.419
		l-58.377,62.901l-0.014,0.015c-0.538-0.409-1.182-0.672-1.888-0.751l2.132-141.25C3041.531,26.641,3041.573,26.653,3041.619,26.653
		z M3036.042,174.273l0.02-0.014c0.094,0.105,0.193,0.204,0.298,0.298l-85.567,116.66l-17.428-37.478
		c1.081-0.682,1.803-1.879,1.803-3.251c0-0.69-0.196-1.329-0.514-1.889L3036.042,174.273z M2931.315,254.34
		c0.266,0,0.526-0.027,0.777-0.079l12.532,45.363l-106.996,145.863l92.449-191.324l0.019-0.039
		C2930.482,254.254,2930.887,254.34,2931.315,254.34z M2832.78,446.299c-0.509,0.506-0.871,1.155-1.035,1.88l-99.733-12.573
		l27.021-75.059l0.011-0.031c0.303,0.077,0.616,0.13,0.944,0.13c0.793,0,1.53-0.241,2.142-0.651L2832.78,446.299z M2756.93,359.157
		l0.023-0.015c0.368,0.475,0.84,0.861,1.388,1.122l-27.092,75.246l-76.748-9.675c0.001-0.036,0.01-0.069,0.01-0.105
		c0-0.622-0.161-1.2-0.422-1.72L2756.93,359.157z M2651.015,429.582l0-0.035c0.564-0.052,1.09-0.222,1.558-0.491l53.839,75.452
		l-7.12,19.773c-0.302-0.076-0.614-0.129-0.94-0.129c-2.127,0-3.852,1.725-3.852,3.852c0,0.174,0.029,0.339,0.051,0.507
		l-44.001,10.379L2651.015,429.582z M2649.799,539.834l-0.214,50.174l0,0.034c-1.326,0.124-2.447,0.91-3.039,2.034l-77.69-31.577
		c0.104-0.348,0.176-0.709,0.176-1.091c0-0.174-0.029-0.341-0.051-0.509L2649.799,539.834z M2561.318,559.464l0.014,0.001
		c0.005,0.331,0.062,0.647,0.145,0.953l-79.632,30.314l-39.826-39.344c0.4-0.493,0.686-1.077,0.803-1.728L2561.318,559.464z
		 M2219.424,594.546l-33.482,36.827l-5.523-5.273L2219.424,594.546z M2185.437,631.929l-14.57,16.028l-4.873-10.187l13.837-11.194
		L2185.437,631.929z M2165.66,637.074l-20.371-42.586l-0.015-0.031c0.185-0.112,0.355-0.24,0.518-0.38l33.491,31.977
		L2165.66,637.074z M2114.963,678.087c-0.327-0.343-0.718-0.621-1.152-0.825l28.562-82.318l0.012-0.035
		c0.29,0.07,0.589,0.117,0.901,0.117c0.463,0,0.902-0.095,1.313-0.245l20.462,42.778l-50.088,40.52L2114.963,678.087z
		 M2058.804,705.312l82.503-110.851c0.121,0.073,0.244,0.143,0.373,0.202l-28.565,82.323l-0.009,0.025
		c-0.298-0.074-0.605-0.125-0.926-0.125c-2.127,0-3.852,1.725-3.852,3.852c0,0.475,0.097,0.925,0.255,1.345L2058.804,705.312z
		 M2104.67,720.776l7.154-36.22c0.119,0.011,0.234,0.036,0.357,0.036c2.127,0,3.852-1.725,3.852-3.852
		c0-0.761-0.228-1.465-0.608-2.062l49.971-40.425l4.927,10.301L2104.67,720.776z M2171.216,648.687l14.764-16.241l7.303,6.971
		l-14.82,24.42L2171.216,648.687z M2178.849,664.645l14.988-24.698l44.293,42.278c-0.515,0.655-0.834,1.47-0.834,2.367
		c0,0.823,0.263,1.582,0.703,2.208l-34.42,29.541L2178.849,664.645z M2244.745,683.247c-0.026-0.07-0.047-0.141-0.077-0.208
		l113.646-64.032l0.023-0.013c0.185,0.264,0.409,0.495,0.654,0.705l-28.639,40.802L2244.745,683.247z M2331.478,660.202
		l27.08-38.582l-18.906,36.41L2331.478,660.202z M2340.634,657.769l19.424-37.409c0.443,0.178,0.925,0.282,1.431,0.282
		c0.244,0,0.481-0.028,0.713-0.072l8.512,29.207L2340.634,657.769z M2371.439,649.584l-8.517-29.224
		c0.481-0.193,0.915-0.476,1.277-0.834l29.185,24.228L2371.439,649.584z M2462.982,700.556l-68.005-56.45l106.708-28.352
		c0.302,0.808,0.862,1.484,1.586,1.93L2462.982,700.556z M2503.927,618.044l0.016-0.033c0.111,0.041,0.225,0.074,0.34,0.106
		l-16.556,99.437c-0.086-0.006-0.168-0.026-0.256-0.026c-1.057,0-2.013,0.427-2.709,1.116l-21.186-17.595L2503.927,618.044z
		 M2490.269,718.714l-0.016,0.012c-0.48-0.503-1.095-0.866-1.786-1.052l16.554-99.403l0.005-0.033
		c0.087,0.006,0.17,0.026,0.258,0.026c0.8,0,1.543-0.245,2.159-0.662l13.76,16.585c-0.69,0.696-1.118,1.653-1.118,2.711
		c0,2.127,1.725,3.852,3.852,3.852c1.562,0,2.9-0.933,3.505-2.269l45.443,15.382L2490.269,718.714z M2574.437,653.593l72.705-57.068
		l0.018-0.014c0.428,0.449,0.964,0.783,1.564,0.984l-17.24,75.41L2574.437,653.593z M2632.198,673.147l17.257-75.486
		c0.161,0.021,0.32,0.049,0.487,0.049c0.528,0,1.031-0.107,1.489-0.299l53.173,98.458c-0.644,0.263-1.192,0.7-1.606,1.246
		L2632.198,673.147z M2709.987,699.053l-0.12-0.025c-0.099-0.935-0.518-1.769-1.164-2.383l16.526-20.729l30.218,32.711
		L2709.987,699.053z M2725.704,675.321l51.376-64.441c0.635,0.46,1.409,0.74,2.253,0.74c1.116,0,2.114-0.482,2.817-1.242
		l95.493,123.986l-120.926-25.468L2725.704,675.321z M2971.856,678.795c0.139-0.397,0.229-0.818,0.229-1.263
		c0-1.315-0.661-2.473-1.667-3.168l0.022-0.049l76.82-168.319l0.013-0.028c0.393,0.135,0.807,0.224,1.245,0.224
		c0.163,0,0.319-0.028,0.477-0.048l46.051,203.696L2971.856,678.795z M3095.863,710.045l-46.128-204.039l-0.006-0.028
		c0.168-0.056,0.331-0.12,0.488-0.198l142.084,228.567L3095.863,710.045z M3166.324,647.208L3051.23,505.094l-0.01-0.012
		c0.667-0.657,1.083-1.557,1.132-2.555l112.517-5.523L3166.324,647.208z"/>
</g>
</svg>
