<?xml version="1.0" standalone="no"?><!DOCTYPE svg PUBLIC "-//W3C//DTD SVG 1.1//EN" "http://www.w3.org/Graphics/SVG/1.1/DTD/svg11.dtd"><svg t="1682472462644" class="icon" viewBox="0 0 1024 1024" version="1.1" xmlns="http://www.w3.org/2000/svg" p-id="3715" width="200" height="200" xmlns:xlink="http://www.w3.org/1999/xlink"><path d="M562.496 628.928L460.16 514.176l-200.512 166.656 195.584-393.344L570.88 423.04l214.656-166.592-223.04 372.48z m360.128-443.072l-2.176-24.832-24.64-3.2A867.52 867.52 0 0 1 513.152 9.6L493.056 0l-13.824 8.128-2.496 1.6a867.648 867.648 0 0 1-382.336 148.096l-24.704 3.2-2.176 24.832C64.96 214.656 64 334.336 64 353.28c0 283.776 123.904 468.992 414.336 655.488l16.704 10.752 16.768-10.752c290.432-186.432 414.4-371.584 414.4-655.488 0-18.944-1.024-138.56-3.584-167.36z" p-id="3716" fill="#7033FF"></path></svg>