<?xml version="1.0" encoding="UTF-8"?>
<svg width="16px" height="16px" viewBox="0 0 16 16" version="1.1" xmlns="http://www.w3.org/2000/svg" xmlns:xlink="http://www.w3.org/1999/xlink">
    <title>切片</title>
    <defs>
        <filter color-interpolation-filters="auto" id="filter-1">
            <feColorMatrix in="SourceGraphic" type="matrix" values="0 0 0 0 0.600000 0 0 0 0 0.635294 0 0 0 0 0.701961 0 0 0 1.000000 0"></feColorMatrix>
        </filter>
    </defs>
    <g id="新版" stroke="none" stroke-width="1" fill="none" fill-rule="evenodd">
        <g id="2-1KYT" transform="translate(-738.000000, -779.000000)">
            <g id="编组" transform="translate(712.000000, 722.000000)">
                <g id="Icon-/-币种-/-钱包" transform="translate(26.000000, 54.000000)" filter="url(#filter-1)">
                    <g transform="translate(0.000000, 3.000000)">
                        <g id="理财" transform="translate(1.142857, 1.428571)" fill="#000000" fill-rule="nonzero">
                            <path d="M13.7142857,11.77851 C13.7142857,11.9684191 13.6815607,12.1458342 13.6161108,12.3107553 C13.5506608,12.4756764 13.4575205,12.6206071 13.3366897,12.7455473 C13.215859,12.8704875 13.0748899,12.9679408 12.9137823,13.0379074 C12.7526746,13.1078739 12.5764632,13.1428571 12.3851479,13.1428571 L1.41976086,13.1428571 C1.22844556,13.1428571 1.0471995,13.1078739 0.876022656,13.0379074 C0.704845815,12.9679408 0.553807426,12.8704875 0.422907489,12.7455473 C0.292007552,12.6206071 0.188797986,12.4756764 0.113278792,12.3107553 C0.0377595972,12.1458342 0,11.9684191 0,11.77851 L0,4.29709007 C0,3.91727183 0.133417244,3.59492608 0.400251731,3.33005282 C0.667086218,3.06517957 0.991818754,2.93274295 1.37444934,2.93274295 L12.3398364,2.93274295 C12.722467,2.93274295 13.0471995,3.06517957 13.314034,3.33005282 C13.5808685,3.59492608 13.7142857,3.91727183 13.7142857,4.29709007 L13.7142857,6.33611435 L10.2857143,6.33611435 C9.9030837,6.33611435 9.57835116,6.46605217 9.31151668,6.72592781 C9.04468219,6.98580345 8.91126495,7.3056504 8.91126495,7.68546865 C8.92133417,7.94534429 8.97671492,8.17523428 9.07740717,8.37513862 C9.15796098,8.54505731 9.29137823,8.69998317 9.4776589,8.83991621 C9.66393958,8.97984925 9.93329138,9.04981577 10.2857143,9.04981577 L13.7142857,9.04981577 L13.7142857,11.77851 L13.7142857,11.77851 Z M11.6601636,2.24307297 L4.80302077,2.24307297 C5.34675897,1.9632069 5.86028949,1.69333604 6.34361233,1.43346039 C6.76651982,1.21356562 7.1843927,0.993670844 7.59723096,0.77377607 C8.01006923,0.553881295 8.33228446,0.383962605 8.56387665,0.264020001 C8.91629956,0.0741108775 9.23096287,-0.0133472715 9.50786658,0.00164555402 C9.7847703,0.0166383796 10.0188798,0.0641156605 10.2101951,0.144077397 C10.4317181,0.254024784 10.6230334,0.398955431 10.784141,0.578869337 L11.6601636,2.24307297 Z M9.60604154,7.68546865 C9.60604154,7.49555952 9.6714915,7.33563605 9.80239144,7.20569823 C9.93329138,7.07576041 10.094399,7.0107915 10.2857143,7.0107915 C10.4770296,7.0107915 10.6381372,7.07576041 10.7690371,7.20569823 C10.8999371,7.33563605 10.965387,7.49555952 10.965387,7.68546865 C10.965387,7.87537777 10.8999371,8.03780005 10.7690371,8.17273548 C10.6381372,8.30767091 10.4770296,8.37513862 10.2857143,8.37513862 C10.094399,8.37513862 9.93329138,8.30767091 9.80239144,8.17273548 C9.6714915,8.03780005 9.60604154,7.87537777 9.60604154,7.68546865 Z" id="形状"></path>
                        </g>
                    </g>
                </g>
            </g>
        </g>
    </g>
</svg>